<svg width="82" height="40" viewBox="0 0 82 40" fill="none" xmlns="http://www.w3.org/2000/svg">
<rect x="0.5" y="0.5" width="81" height="39" rx="7.5" fill="white"/>
<rect x="0.5" y="0.5" width="81" height="39" rx="7.5" stroke="#E9EAEB"/>
<path d="M21.5 27.5H13.7761C13.2713 27.5 13.0189 27.5 12.902 27.4002C12.8006 27.3135 12.7467 27.1836 12.7572 27.0506C12.7693 26.8974 12.9478 26.7189 13.3047 26.3619L20.3905 19.2761C20.7205 18.9461 20.8855 18.7811 21.0758 18.7193C21.2432 18.6649 21.4235 18.6649 21.5908 18.7193C21.7811 18.7811 21.9461 18.9461 22.2761 19.2761L25.5 22.5V23.5M21.5 27.5C22.9001 27.5 23.6002 27.5 24.135 27.2275C24.6054 26.9878 24.9878 26.6054 25.2275 26.135C25.5 25.6002 25.5 24.9001 25.5 23.5M21.5 27.5H14.5C13.0999 27.5 12.3998 27.5 11.865 27.2275C11.3946 26.9878 11.0122 26.6054 10.7725 26.135C10.5 25.6002 10.5 24.9001 10.5 23.5V16.5C10.5 15.0999 10.5 14.3998 10.7725 13.865C11.0122 13.3946 11.3946 13.0122 11.865 12.7725C12.3998 12.5 13.0999 12.5 14.5 12.5H21.5C22.9001 12.5 23.6002 12.5 24.135 12.7725C24.6054 13.0122 24.9878 13.3946 25.2275 13.865C25.5 14.3998 25.5 15.0999 25.5 16.5V23.5M16.75 17.0833C16.75 18.0038 16.0038 18.75 15.0833 18.75C14.1629 18.75 13.4167 18.0038 13.4167 17.0833C13.4167 16.1629 14.1629 15.4167 15.0833 15.4167C16.0038 15.4167 16.75 16.1629 16.75 17.0833Z" stroke="#717680" stroke-width="1.5" stroke-linecap="round" stroke-linejoin="round"/>
<path d="M40.3995 13.5556C41.9403 13.5556 43.1551 13.9467 44.044 14.7289C44.9447 15.5111 45.3951 16.5837 45.3951 17.9467C45.3951 18.8474 45.1936 19.6296 44.7906 20.2933C44.3877 20.9452 43.8069 21.4489 43.0484 21.8044C42.3017 22.1481 41.4188 22.32 40.3995 22.32H37.644V26H35.6173V13.5556H40.3995ZM40.3106 20.5778C41.2943 20.5778 42.0469 20.3467 42.5684 19.8844C43.0899 19.4222 43.3506 18.7763 43.3506 17.9467C43.3506 17.1052 43.0899 16.4533 42.5684 15.9911C42.0469 15.5289 41.2943 15.2978 40.3106 15.2978H37.644V20.5778H40.3106ZM57.722 26H56.0509L49.3309 17.1822V26H47.3398V13.5556H49.0109L55.7309 22.3733V13.5556H57.722V26ZM70.5227 19.6711V24.5778C69.9301 25.0874 69.2309 25.4785 68.4249 25.7511C67.6309 26.0237 66.8072 26.16 65.9538 26.16C64.7449 26.16 63.6546 25.8874 62.6827 25.3422C61.7227 24.7852 60.9701 24.0267 60.4249 23.0667C59.8797 22.0948 59.6072 20.9985 59.6072 19.7778C59.6072 18.557 59.8797 17.4667 60.4249 16.5067C60.982 15.5348 61.7405 14.7763 62.7005 14.2311C63.6723 13.6741 64.7686 13.3956 65.9894 13.3956C66.9612 13.3956 67.8442 13.5615 68.6383 13.8933C69.4442 14.2252 70.1197 14.717 70.6649 15.3689L69.3849 16.6489C68.9346 16.1511 68.4368 15.7896 67.8916 15.5644C67.3464 15.3274 66.742 15.2089 66.0783 15.2089C65.2249 15.2089 64.4605 15.4044 63.7849 15.7956C63.1094 16.1867 62.582 16.7319 62.2027 17.4311C61.8234 18.1185 61.6338 18.9007 61.6338 19.7778C61.6338 20.643 61.8234 21.4252 62.2027 22.1244C62.582 22.8119 63.1094 23.357 63.7849 23.76C64.4605 24.1511 65.219 24.3467 66.0605 24.3467C67.0679 24.3467 67.939 24.0859 68.6738 23.5644V19.6711H70.5227Z" fill="#717680"/>
</svg>
