<svg width="78" height="40" viewBox="0 0 78 40" fill="none" xmlns="http://www.w3.org/2000/svg">
<rect x="0.5" y="0.5" width="77" height="39" rx="7.5" fill="white"/>
<rect x="0.5" y="0.5" width="77" height="39" rx="7.5" stroke="#E9EAEB"/>
<path d="M25.5 22.5V23.5C25.5 24.9001 25.5 25.6002 25.2275 26.135C24.9878 26.6054 24.6054 26.9878 24.135 27.2275C23.6002 27.5 22.9001 27.5 21.5 27.5H14.5C13.0999 27.5 12.3998 27.5 11.865 27.2275C11.3946 26.9878 11.0122 26.6054 10.7725 26.135C10.5 25.6002 10.5 24.9001 10.5 23.5V22.5M22.1667 18.3333L18 22.5M18 22.5L13.8333 18.3333M18 22.5V12.5" stroke="#717680" stroke-width="1.5" stroke-linecap="round" stroke-linejoin="round"/>
<path d="M41.2364 26.16C40.0512 26.16 38.9786 25.8874 38.0186 25.3422C37.0586 24.7852 36.3061 24.0207 35.7609 23.0489C35.2157 22.077 34.9431 20.9867 34.9431 19.7778C34.9431 18.557 35.2157 17.4667 35.7609 16.5067C36.3061 15.5348 37.0586 14.7763 38.0186 14.2311C38.9786 13.6741 40.0572 13.3956 41.2542 13.3956C42.2023 13.3956 43.0735 13.5674 43.8675 13.9111C44.6616 14.2548 45.3253 14.7526 45.8586 15.4044L44.5786 16.6844C43.7016 15.7007 42.6231 15.2089 41.3431 15.2089C40.5135 15.2089 39.7668 15.4044 39.1031 15.7956C38.4394 16.1867 37.9179 16.7319 37.5386 17.4311C37.1594 18.1304 36.9698 18.9126 36.9698 19.7778C36.9698 20.643 37.1594 21.4252 37.5386 22.1244C37.9179 22.8237 38.4394 23.3689 39.1031 23.76C39.7668 24.1511 40.5135 24.3467 41.3431 24.3467C42.6231 24.3467 43.7016 23.8489 44.5786 22.8533L45.8586 24.1333C45.3253 24.797 44.6616 25.3007 43.8675 25.6444C43.0735 25.9881 42.1964 26.16 41.2364 26.16ZM51.1575 26.16C50.2449 26.16 49.3678 26.0237 48.5264 25.7511C47.6967 25.4667 47.033 25.0933 46.5352 24.6311L47.2641 23.0489C47.7264 23.4637 48.3071 23.8015 49.0064 24.0622C49.7175 24.323 50.4345 24.4533 51.1575 24.4533C52.0701 24.4533 52.7515 24.2933 53.2019 23.9733C53.6523 23.6415 53.8775 23.2089 53.8775 22.6756C53.8775 22.2844 53.7471 21.9644 53.4864 21.7156C53.2375 21.4667 52.9175 21.2711 52.5264 21.1289C52.1471 20.9867 51.6256 20.8326 50.9619 20.6667C50.0849 20.4533 49.3678 20.2341 48.8108 20.0089C48.2538 19.7837 47.7797 19.4341 47.3886 18.96C46.9975 18.4741 46.8019 17.8341 46.8019 17.04C46.8019 16.3644 46.9738 15.7541 47.3175 15.2089C47.6612 14.6519 48.1827 14.2133 48.8819 13.8933C49.593 13.5615 50.4582 13.3956 51.4775 13.3956C52.2004 13.3956 52.9056 13.4904 53.593 13.68C54.2804 13.8696 54.873 14.1422 55.3708 14.4978L54.7308 16.1156C54.2093 15.7837 53.6701 15.5348 53.113 15.3689C52.556 15.1911 52.0049 15.1022 51.4597 15.1022C50.5708 15.1022 49.9071 15.2741 49.4686 15.6178C49.0301 15.9615 48.8108 16.4059 48.8108 16.9511C48.8108 17.3422 48.9352 17.6622 49.1841 17.9111C49.4449 18.16 49.7649 18.3556 50.1441 18.4978C50.5352 18.64 51.0686 18.7941 51.7441 18.96C52.6212 19.1733 53.3323 19.3926 53.8775 19.6178C54.4345 19.843 54.9086 20.1926 55.2997 20.6667C55.6908 21.1289 55.8864 21.7511 55.8864 22.5333C55.8864 23.2089 55.7086 23.8193 55.353 24.3644C55.0093 24.9096 54.4819 25.3481 53.7708 25.68C53.0597 26 52.1886 26.16 51.1575 26.16ZM62.6939 26H60.7027L55.5472 13.5556H57.7339L61.7872 23.3689L65.8583 13.5556H67.885L62.6939 26Z" fill="#717680"/>
</svg>
