<svg width="88" height="40" viewBox="0 0 88 40" fill="none" xmlns="http://www.w3.org/2000/svg">
<rect x="0.5" y="0.5" width="87" height="39" rx="7.5" fill="white"/>
<rect x="0.5" y="0.5" width="87" height="39" rx="7.5" stroke="#E9EAEB"/>
<path d="M19.6667 11.8911V15.3332C19.6667 15.7999 19.6667 16.0333 19.7575 16.2116C19.8374 16.3684 19.9649 16.4958 20.1217 16.5757C20.3 16.6666 20.5333 16.6666 21 16.6666H24.4422M11.3334 24.3332C11.3334 25.7333 11.3334 26.4334 11.6059 26.9681C11.8455 27.4386 12.228 27.821 12.6984 28.0607C13.2332 28.3332 13.9332 28.3332 15.3334 28.3332H20.6667C22.0668 28.3332 22.7669 28.3332 23.3017 28.0607C23.7721 27.821 24.1545 27.4386 24.3942 26.9681C24.5455 26.6713 24.6128 26.3234 24.6427 25.8332M11.3334 18.3332V15.6665C11.3334 14.2664 11.3334 13.5663 11.6059 13.0315C11.8455 12.5611 12.228 12.1787 12.6984 11.939C13.2332 11.6665 13.9332 11.6665 15.3334 11.6665H19.6667L24.6667 16.6665V18.3332" stroke="#717680" stroke-width="1.5" stroke-linecap="round" stroke-linejoin="round"/>
<path d="M25.333 18.333C25.8852 18.333 26.3328 18.7809 26.333 19.333V24.833C26.333 25.3853 25.8853 25.833 25.333 25.833H10.667C10.1147 25.833 9.66699 25.3853 9.66699 24.833V19.333C9.66717 18.7809 10.1148 18.333 10.667 18.333H25.333ZM22.1533 19.5547C21.1248 19.5548 20.3701 20.1212 20.3701 20.9805C20.3701 21.6705 20.8581 22.0674 21.6523 22.2627L22.167 22.3867C22.681 22.5169 22.9735 22.6666 22.9736 22.9854C22.9736 23.3368 22.6421 23.578 22.1279 23.5781C21.6072 23.5781 21.229 23.3373 21.1963 22.8623H20.2461C20.2723 23.8712 21.0014 24.3984 22.1406 24.3984C23.2865 24.3984 23.9639 23.8512 23.9639 22.9854C23.9637 22.1978 23.358 21.7877 22.5508 21.6055L22.1279 21.501C21.7243 21.4098 21.3656 21.2536 21.3721 20.915C21.3787 20.6027 21.6528 20.375 22.1475 20.375C22.6225 20.3751 22.9219 20.5968 22.9609 20.9678H23.8984C23.8854 20.1344 23.195 19.5547 22.1533 19.5547ZM11.9844 19.6201L13.4365 21.9766L11.958 24.333H13.085L14.0615 22.7119H14.0938L15.0703 24.333H16.2031L14.7314 21.9766L16.1709 19.6201H15.0635L14.0938 21.2412H14.0615L13.0977 19.6201H11.9844ZM16.7627 19.6201V24.333H19.7705V23.5264H17.7393V19.6201H16.7627Z" fill="#717680"/>
<path d="M44.1864 26H35.422V13.5556H43.9553V15.28H37.4309V18.8533H43.2264V20.5244H37.4309V24.2756H44.1864V26ZM49.2642 22.6044L46.8464 26H44.7131L48.1975 21.2L44.8375 16.5422H47.042L49.3175 19.76L51.6286 16.5422H53.7086L50.3664 21.1467L53.8864 26H51.6642L49.2642 22.6044ZM59.1806 26.1067C58.2561 26.1067 57.4265 25.9052 56.6917 25.5022C55.9569 25.0874 55.3821 24.5126 54.9673 23.7778C54.5524 23.043 54.345 22.2074 54.345 21.2711C54.345 20.3348 54.5524 19.4993 54.9673 18.7644C55.3821 18.0296 55.9569 17.4607 56.6917 17.0578C57.4265 16.643 58.2561 16.4356 59.1806 16.4356C60.0458 16.4356 60.8102 16.6193 61.4739 16.9867C62.1376 17.3541 62.6413 17.8874 62.985 18.5867L61.4739 19.4756C61.2132 19.0252 60.8813 18.6874 60.4784 18.4622C60.0873 18.237 59.6547 18.1244 59.1806 18.1244C58.6354 18.1244 58.1495 18.2548 57.7228 18.5156C57.2961 18.7644 56.9584 19.1319 56.7095 19.6178C56.4606 20.0919 56.3361 20.643 56.3361 21.2711C56.3361 21.8993 56.4606 22.4563 56.7095 22.9422C56.9584 23.4163 57.2961 23.7837 57.7228 24.0444C58.1495 24.2933 58.6354 24.4178 59.1806 24.4178C59.6665 24.4178 60.105 24.3052 60.4961 24.08C60.8873 23.8548 61.2132 23.517 61.4739 23.0667L62.985 23.9733C62.6413 24.6607 62.1376 25.1881 61.4739 25.5556C60.8102 25.923 60.0458 26.1067 59.1806 26.1067ZM72.8734 21.2711C72.8616 21.4489 72.8497 21.6326 72.8379 21.8222H65.709C65.8038 22.6281 66.1238 23.2681 66.669 23.7422C67.2142 24.2163 67.9016 24.4533 68.7312 24.4533C69.7505 24.4533 70.5801 24.0978 71.2201 23.3867L72.269 24.5778C71.4275 25.597 70.2305 26.1067 68.6779 26.1067C67.706 26.1067 66.8468 25.8993 66.1001 25.4844C65.3534 25.0696 64.7727 24.4948 64.3579 23.76C63.9431 23.0252 63.7357 22.1956 63.7357 21.2711C63.7357 20.3467 63.9371 19.517 64.3401 18.7822C64.7431 18.0474 65.2942 17.4726 65.9934 17.0578C66.6927 16.643 67.4808 16.4356 68.3579 16.4356C69.1994 16.4356 69.9638 16.637 70.6512 17.04C71.3386 17.4311 71.8779 17.9941 72.269 18.7289C72.672 19.4637 72.8734 20.3111 72.8734 21.2711ZM68.3579 18C67.6349 18 67.0245 18.237 66.5268 18.7111C66.0408 19.1852 65.7623 19.8074 65.6912 20.5778H71.0423C70.9594 19.8074 70.669 19.1852 70.1712 18.7111C69.6853 18.237 69.0808 18 68.3579 18ZM76.5359 12.8089V26H74.5804V12.8089H76.5359Z" fill="#717680"/>
</svg>
