<svg width="91" height="40" viewBox="0 0 91 40" fill="none" xmlns="http://www.w3.org/2000/svg">
<rect x="0.5" y="0.5" width="90" height="39" rx="7.5" fill="white"/>
<rect x="0.5" y="0.5" width="90" height="39" rx="7.5" stroke="#E9EAEB"/>
<path d="M9.66675 18.3333C9.66675 18.3333 11.3376 16.0568 12.6949 14.6985C14.0523 13.3402 15.9281 12.5 18.0001 12.5C22.1422 12.5 25.5001 15.8579 25.5001 20C25.5001 24.1421 22.1422 27.5 18.0001 27.5C14.5808 27.5 11.696 25.2119 10.7932 22.0833M9.66675 18.3333V13.3333M9.66675 18.3333H14.6667" stroke="#717680" stroke-width="1.5" stroke-linecap="round" stroke-linejoin="round"/>
<path d="M40.8291 22.2667C40.6158 22.2904 40.4439 22.3022 40.3136 22.3022H37.558V26H35.5314V13.5556H40.3136C41.8543 13.5556 43.0691 13.9467 43.958 14.7289C44.8588 15.5111 45.3091 16.5837 45.3091 17.9467C45.3091 18.8948 45.0839 19.7067 44.6336 20.3822C44.1951 21.0459 43.561 21.5378 42.7314 21.8578L45.5047 26H43.3358L40.8291 22.2667ZM40.2247 20.5778C41.2084 20.5778 41.961 20.3467 42.4825 19.8844C43.0039 19.4222 43.2647 18.7763 43.2647 17.9467C43.2647 17.1052 43.0039 16.4533 42.4825 15.9911C41.961 15.5289 41.2084 15.2978 40.2247 15.2978H37.558V20.5778H40.2247ZM55.1703 21.2711C55.1585 21.4489 55.1466 21.6326 55.1348 21.8222H48.0059C48.1007 22.6281 48.4207 23.2681 48.9659 23.7422C49.5111 24.2163 50.1985 24.4533 51.0281 24.4533C52.0473 24.4533 52.877 24.0978 53.517 23.3867L54.5659 24.5778C53.7244 25.597 52.5273 26.1067 50.9748 26.1067C50.0029 26.1067 49.1436 25.8993 48.397 25.4844C47.6503 25.0696 47.0696 24.4948 46.6548 23.76C46.2399 23.0252 46.0325 22.1956 46.0325 21.2711C46.0325 20.3467 46.234 19.517 46.637 18.7822C47.0399 18.0474 47.5911 17.4726 48.2903 17.0578C48.9896 16.643 49.7777 16.4356 50.6548 16.4356C51.4962 16.4356 52.2607 16.637 52.9481 17.04C53.6355 17.4311 54.1748 17.9941 54.5659 18.7289C54.9688 19.4637 55.1703 20.3111 55.1703 21.2711ZM50.6548 18C49.9318 18 49.3214 18.237 48.8236 18.7111C48.3377 19.1852 48.0592 19.8074 47.9881 20.5778H53.3392C53.2562 19.8074 52.9659 19.1852 52.4681 18.7111C51.9822 18.237 51.3777 18 50.6548 18ZM59.6328 26.1067C58.898 26.1067 58.1869 26.0059 57.4995 25.8044C56.8121 25.603 56.261 25.3422 55.8461 25.0222L56.5217 23.5289C56.9128 23.8252 57.3928 24.0681 57.9617 24.2578C58.5306 24.4474 59.1113 24.5422 59.7039 24.5422C61.0669 24.5422 61.7484 24.1333 61.7484 23.3156C61.7484 22.9363 61.5706 22.6696 61.215 22.5156C60.8713 22.3615 60.3261 22.2193 59.5795 22.0889C58.8447 21.9585 58.2461 21.8163 57.7839 21.6622C57.3336 21.5081 56.9424 21.2474 56.6106 20.88C56.2787 20.5126 56.1128 19.9911 56.1128 19.3156C56.1128 18.4622 56.4506 17.7689 57.1261 17.2356C57.8136 16.7022 58.7676 16.4356 59.9884 16.4356C60.5928 16.4356 61.1973 16.5126 61.8017 16.6667C62.4061 16.8207 62.9039 17.0341 63.295 17.3067L62.6017 18.7644C61.8432 18.2548 60.9661 18 59.9706 18C59.3069 18 58.8091 18.1126 58.4773 18.3378C58.1454 18.563 57.9795 18.8593 57.9795 19.2267C57.9795 19.6296 58.1573 19.9141 58.5128 20.08C58.8802 20.2459 59.4491 20.4 60.2195 20.5422C60.9424 20.6844 61.5232 20.8326 61.9617 20.9867C62.4121 21.1407 62.7973 21.4015 63.1173 21.7689C63.4491 22.1244 63.615 22.6281 63.615 23.28C63.615 24.1215 63.2595 24.803 62.5484 25.3244C61.8491 25.8459 60.8773 26.1067 59.6328 26.1067ZM73.4984 21.2711C73.4866 21.4489 73.4747 21.6326 73.4629 21.8222H66.334C66.4288 22.6281 66.7488 23.2681 67.294 23.7422C67.8392 24.2163 68.5266 24.4533 69.3562 24.4533C70.3755 24.4533 71.2051 24.0978 71.8451 23.3867L72.894 24.5778C72.0525 25.597 70.8555 26.1067 69.3029 26.1067C68.331 26.1067 67.4718 25.8993 66.7251 25.4844C65.9784 25.0696 65.3977 24.4948 64.9829 23.76C64.5681 23.0252 64.3607 22.1956 64.3607 21.2711C64.3607 20.3467 64.5621 19.517 64.9651 18.7822C65.3681 18.0474 65.9192 17.4726 66.6184 17.0578C67.3177 16.643 68.1058 16.4356 68.9829 16.4356C69.8244 16.4356 70.5888 16.637 71.2762 17.04C71.9636 17.4311 72.5029 17.9941 72.894 18.7289C73.297 19.4637 73.4984 20.3111 73.4984 21.2711ZM68.9829 18C68.2599 18 67.6495 18.237 67.1518 18.7111C66.6658 19.1852 66.3873 19.8074 66.3162 20.5778H71.6673C71.5844 19.8074 71.294 19.1852 70.7962 18.7111C70.3103 18.237 69.7058 18 68.9829 18ZM80.5032 25.5022C80.2661 25.7037 79.9639 25.8578 79.5965 25.9644C79.2409 26.0593 78.8676 26.1067 78.4765 26.1067C77.5165 26.1067 76.7758 25.8459 76.2543 25.3244C75.7328 24.7911 75.472 24.0267 75.472 23.0311V18.2844H73.9965V16.6844H75.472V14.4622H77.4276V16.6844H79.8987V18.2844H77.4276V22.9778C77.4276 23.4519 77.5402 23.8193 77.7654 24.08C78.0024 24.3407 78.3283 24.4711 78.7432 24.4711C79.2172 24.4711 79.6143 24.3289 79.9343 24.0444L80.5032 25.5022Z" fill="#717680"/>
</svg>
