<svg width="32" height="32" viewBox="0 0 32 32" fill="none" xmlns="http://www.w3.org/2000/svg">
<g clip-path="url(#clip0_2106_633)">
<path d="M22 0.5H10C4.75329 0.5 0.5 4.75329 0.5 10V22C0.5 27.2467 4.75329 31.5 10 31.5H22C27.2467 31.5 31.5 27.2467 31.5 22V10C31.5 4.75329 27.2467 0.5 22 0.5Z" fill="white"/>
<path d="M22 0.5H10C4.75329 0.5 0.5 4.75329 0.5 10V22C0.5 27.2467 4.75329 31.5 10 31.5H22C27.2467 31.5 31.5 27.2467 31.5 22V10C31.5 4.75329 27.2467 0.5 22 0.5Z" stroke="#17B26A"/>
<path d="M17.6667 10.9999C17.6667 10.0794 16.9205 9.33325 16 9.33325C15.0795 9.33325 14.3333 10.0794 14.3333 10.9999V17.1718C13.5293 17.7099 13 18.6264 13 19.6666C13 21.3234 14.3431 22.6666 16 22.6666C17.6569 22.6666 19 21.3234 19 19.6666C19 18.6264 18.4707 17.7099 17.6667 17.1718V10.9999Z" stroke="#17B26A" stroke-linecap="round" stroke-linejoin="round"/>
<path d="M16 20.3334C16.3682 20.3334 16.6667 20.0349 16.6667 19.6667C16.6667 19.2985 16.3682 19 16 19C15.6318 19 15.3333 19.2985 15.3333 19.6667C15.3333 20.0349 15.6318 20.3334 16 20.3334Z" stroke="#17B26A" stroke-linecap="round" stroke-linejoin="round"/>
</g>
<defs>
<clipPath id="clip0_2106_633">
<rect width="32" height="32" fill="white"/>
</clipPath>
</defs>
</svg>
