<svg width="612" height="225" viewBox="0 0 612 225" fill="none" xmlns="http://www.w3.org/2000/svg">
<rect x="202.455" y="146.545" width="8.90977" height="127.91" rx="3.81579" transform="rotate(90 202.455 146.545)" fill="#EDF7FF" stroke="#5B667C" stroke-width="1.09023"/>
<rect x="216.455" y="69.5451" width="8.90977" height="127.91" rx="3.81579" transform="rotate(90 216.455 69.5451)" fill="#EDF7FF" stroke="#5B667C" stroke-width="1.09023"/>
<rect x="60.5451" y="88.5451" width="8.90977" height="52.9098" rx="3.81579" fill="#EDF7FF" stroke="#5B667C" stroke-width="1.09023"/>
<rect x="216.545" y="80.5451" width="8.90977" height="52.9098" rx="3.81579" fill="#EDF7FF" stroke="#5B667C" stroke-width="1.09023"/>
<path d="M126.275 35.4326H159.365C159.834 35.4326 159.994 35.4295 160.144 35.3984C160.295 35.3673 160.443 35.3072 160.873 35.1221L202.287 17.2979C202.678 17.1294 202.942 17.0137 203.226 16.9551C203.511 16.8964 203.8 16.8984 204.226 16.8984L246.664 16.8984C247.573 16.8984 248.207 16.898 248.691 16.8408C249.163 16.785 249.421 16.6819 249.609 16.5273C249.692 16.4594 249.768 16.3836 249.836 16.3008C249.99 16.1125 250.094 15.8547 250.149 15.3828C250.206 14.8989 250.207 14.2648 250.207 13.3555V4.36133C250.207 3.31804 250.206 2.59002 250.132 2.04102C250.06 1.50799 249.929 1.22554 249.728 1.02441C249.527 0.823258 249.244 0.69182 248.711 0.620117C248.162 0.546367 247.434 0.544922 246.391 0.544922L39.2489 0.544922C38.2056 0.544922 37.4776 0.546311 36.9286 0.620117C36.3953 0.691814 36.1131 0.823285 35.912 1.02441C35.7108 1.22556 35.5794 1.50774 35.5077 2.04102C35.4339 2.59002 35.4325 3.31804 35.4325 4.36133V13.083C35.4325 14.126 35.4339 14.8534 35.5077 15.4023C35.5794 15.9357 35.7108 16.2188 35.912 16.4199C36.1131 16.6209 36.3956 16.7516 36.9286 16.8232C37.4776 16.8971 38.2056 16.8984 39.2489 16.8984L81.4139 16.8984C81.8403 16.8984 82.1284 16.8965 82.413 16.9551C82.6976 17.0137 82.9617 17.1293 83.3534 17.2979L124.766 35.1221C125.197 35.3074 125.345 35.3674 125.496 35.3984C125.647 35.4295 125.807 35.4326 126.275 35.4326Z" fill="#D5DCE5" stroke="#5B667C" stroke-width="1.09023"/>
<path d="M134.099 35.4326H152.581C153.121 35.4326 153.497 35.4321 153.791 35.4111C154.08 35.3905 154.248 35.3516 154.376 35.2959C154.754 35.1309 155.057 34.8286 155.222 34.4502C155.277 34.3224 155.315 34.1547 155.336 33.8662C155.357 33.572 155.357 33.1951 155.357 32.6553V26.165C155.357 25.122 155.356 24.3946 155.282 23.8457C155.21 23.3127 155.08 23.0302 154.879 22.8291C154.678 22.6279 154.395 22.4965 153.861 22.4248C153.312 22.351 152.585 22.3496 151.542 22.3496H134.099C133.055 22.3496 132.327 22.351 131.778 22.4248C131.245 22.4965 130.963 22.6279 130.762 22.8291C130.56 23.0303 130.429 23.3124 130.357 23.8457C130.284 24.3946 130.282 25.1221 130.282 26.165V31.6162C130.282 32.6595 130.283 33.3875 130.357 33.9365C130.429 34.4698 130.56 34.752 130.762 34.9531C130.963 35.1543 131.245 35.2857 131.778 35.3574C132.327 35.4312 133.055 35.4326 134.099 35.4326Z" fill="#D5DCE5" stroke="#5B667C" stroke-width="1.09023"/>
<path d="M134.94 174.009C134.94 174.113 134.91 174.216 134.853 174.304L125.285 189.154H160.354L150.786 174.304C150.729 174.216 150.699 174.113 150.699 174.009V50.5771C150.699 50.4726 150.729 50.3701 150.786 50.2822L160.353 35.4326H125.286L134.853 50.2822C134.91 50.3701 134.94 50.4726 134.94 50.5771V174.009Z" fill="#D5DCE5" stroke="#5B667C" stroke-width="1.09023" stroke-linejoin="round"/>
<path d="M126.275 189.154H159.365C159.834 189.154 159.994 189.157 160.144 189.188C160.295 189.219 160.443 189.279 160.873 189.464L202.287 207.289C202.678 207.457 202.942 207.573 203.226 207.631C203.511 207.69 203.8 207.688 204.226 207.688H246.664C247.573 207.688 248.207 207.688 248.691 207.746C249.163 207.801 249.421 207.905 249.609 208.059C249.692 208.127 249.768 208.203 249.836 208.286C249.99 208.474 250.094 208.732 250.149 209.204C250.206 209.688 250.207 210.322 250.207 211.231V220.225C250.207 221.268 250.206 221.996 250.132 222.545C250.06 223.078 249.929 223.361 249.728 223.562C249.527 223.763 249.244 223.895 248.711 223.966C248.162 224.04 247.434 224.042 246.391 224.042H39.2489C38.2056 224.042 37.4776 224.04 36.9286 223.966C36.3953 223.895 36.1131 223.763 35.912 223.562C35.7108 223.361 35.5794 223.079 35.5077 222.545C35.4339 221.996 35.4325 221.268 35.4325 220.225V211.503C35.4325 210.46 35.4339 209.733 35.5077 209.184C35.5794 208.651 35.7108 208.368 35.912 208.167C36.1131 207.966 36.3956 207.835 36.9286 207.763C37.4776 207.689 38.2056 207.688 39.2489 207.688H81.4139C81.8403 207.688 82.1284 207.69 82.413 207.631C82.6976 207.573 82.9617 207.457 83.3534 207.289L124.766 189.464C125.197 189.279 125.345 189.219 125.496 189.188C125.647 189.157 125.807 189.154 126.275 189.154Z" fill="#D5DCE5" stroke="#5B667C" stroke-width="1.09023"/>
<path d="M151.541 189.154L133.059 189.154C132.519 189.154 132.143 189.154 131.849 189.175C131.56 189.196 131.392 189.235 131.264 189.291C130.886 189.456 130.583 189.758 130.418 190.136C130.363 190.264 130.325 190.432 130.304 190.72C130.283 191.014 130.282 191.391 130.282 191.931L130.282 198.421C130.282 199.464 130.284 200.192 130.358 200.741C130.429 201.274 130.56 201.556 130.761 201.757C130.962 201.958 131.245 202.09 131.779 202.162C132.327 202.235 133.055 202.237 134.098 202.237L151.541 202.237C152.585 202.237 153.313 202.235 153.862 202.162C154.395 202.09 154.677 201.958 154.878 201.757C155.079 201.556 155.211 201.274 155.282 200.741C155.356 200.192 155.358 199.464 155.358 198.421L155.358 192.97C155.358 191.927 155.356 191.199 155.282 190.65C155.211 190.117 155.079 189.834 154.878 189.633C154.677 189.432 154.395 189.301 153.862 189.229C153.313 189.155 152.585 189.154 151.541 189.154Z" fill="#D5DCE5" stroke="#5B667C" stroke-width="1.09023"/>
<path d="M238.215 43.6084L238.215 190.993C238.215 192.386 239.344 193.515 240.736 193.515C242.986 193.515 244.011 193.511 244.843 193.303C247.379 192.667 249.359 190.687 249.995 188.15C250.203 187.319 250.207 186.293 250.207 184.043L250.207 43.6084C250.207 40.2969 247.522 37.6123 244.211 37.6123C240.899 37.6125 238.215 40.297 238.215 43.6084Z" fill="#D5DCE5" stroke="#5B667C" stroke-width="1.09023"/>
<path d="M270.377 9.2666H210.959C206.744 9.26672 203.327 12.6837 203.327 16.8984V28.3457C203.327 31.9587 203.329 34.614 203.603 36.6475C203.874 38.6649 204.404 39.9889 205.403 40.9883C206.403 41.9876 207.727 42.5178 209.744 42.7891C211.778 43.0624 214.433 43.0635 218.046 43.0635H270.377C273.99 43.0635 276.644 43.0624 278.678 42.7891C280.695 42.5178 282.019 41.9876 283.019 40.9883C284.018 39.9889 284.549 38.665 284.82 36.6475C285.094 34.614 285.095 31.9587 285.095 28.3457V23.9844C285.095 20.3717 285.094 17.7169 284.82 15.6836C284.549 13.6659 284.018 12.3422 283.019 11.3428C282.019 10.3433 280.695 9.81229 278.678 9.54102C276.644 9.26765 273.99 9.2666 270.377 9.2666Z" fill="#D5DCE5" stroke="#5B667C" stroke-width="1.09023"/>
<path d="M272.557 29.981H203.328V34.8872C203.328 36.9583 203.329 38.4573 203.482 39.6001C203.634 40.7267 203.925 41.4254 204.445 41.9458C204.966 42.4663 205.665 42.7572 206.792 42.9087C207.935 43.0623 209.434 43.064 211.505 43.064H272.557C273.6 43.064 274.328 43.0626 274.877 42.9888C275.41 42.9171 275.692 42.7856 275.893 42.5845C276.095 42.3833 276.226 42.1012 276.298 41.5679C276.372 41.019 276.373 40.2915 276.373 39.2485V33.7974C276.373 32.7541 276.372 32.026 276.298 31.4771C276.226 30.9437 276.095 30.6616 275.893 30.4604C275.692 30.2593 275.41 30.1279 274.877 30.0562C274.328 29.9823 273.6 29.981 272.557 29.981Z" fill="#C8D7E4" stroke="#5B667C" stroke-width="1.09023"/>
<path d="M272.557 16.8979H207.143C206.1 16.8979 205.372 16.8993 204.823 16.9731C204.29 17.0449 204.008 17.1763 203.807 17.3774C203.605 17.5786 203.474 17.8609 203.402 18.394C203.328 18.943 203.328 19.6711 203.328 20.7144V29.981H272.557C273.6 29.981 274.328 29.9796 274.877 29.9058C275.41 29.8341 275.692 29.7026 275.893 29.5015C276.095 29.3003 276.226 29.0181 276.298 28.4849C276.372 27.936 276.373 27.2085 276.373 26.1655V20.7144C276.373 19.6711 276.372 18.943 276.298 18.394C276.226 17.8607 276.095 17.5786 275.893 17.3774C275.692 17.1763 275.41 17.0448 274.877 16.9731C274.328 16.8993 273.6 16.8979 272.557 16.8979Z" fill="#EDF7FF" stroke="#5B667C" stroke-width="1.09023"/>
<path d="M212.594 16.8979H207.143C206.1 16.8979 205.373 16.8994 204.824 16.9731C204.29 17.0448 204.008 17.1763 203.807 17.3774C203.606 17.5786 203.474 17.8607 203.403 18.394C203.329 18.943 203.328 19.6711 203.328 20.7144V29.981H212.594C213.637 29.981 214.365 29.9796 214.914 29.9058C215.448 29.8341 215.73 29.7026 215.931 29.5015C216.132 29.3003 216.264 29.0181 216.335 28.4849C216.409 27.936 216.411 27.2085 216.411 26.1655V20.7144C216.411 19.6711 216.409 18.943 216.335 18.394C216.264 17.8607 216.132 17.5786 215.931 17.3774C215.73 17.1763 215.448 17.0448 214.914 16.9731C214.365 16.8993 213.637 16.8979 212.594 16.8979Z" fill="#EDF7FF" stroke="#5B667C" stroke-width="1.09023"/>
<path d="M270.377 215.32H210.959C206.744 215.32 203.327 211.903 203.327 207.688V196.241C203.327 192.628 203.329 189.972 203.603 187.939C203.874 185.921 204.404 184.598 205.403 183.598C206.403 182.599 207.727 182.069 209.744 181.797C211.778 181.524 214.433 181.523 218.046 181.523H270.377C273.99 181.523 276.644 181.524 278.678 181.797C280.695 182.069 282.019 182.599 283.019 183.598C284.018 184.598 284.549 185.921 284.82 187.939C285.094 189.972 285.095 192.628 285.095 196.241V200.602C285.095 204.215 285.094 206.87 284.82 208.903C284.549 210.921 284.018 212.244 283.019 213.244C282.019 214.243 280.695 214.774 278.678 215.045C276.644 215.319 273.99 215.32 270.377 215.32Z" fill="#D5DCE5" stroke="#5B667C" stroke-width="1.09023"/>
<path d="M272.557 194.605H203.328V189.699C203.328 187.628 203.329 186.129 203.482 184.986C203.634 183.86 203.925 183.161 204.445 182.641C204.966 182.12 205.665 181.829 206.792 181.678C207.935 181.524 209.434 181.522 211.505 181.522H272.557C273.6 181.522 274.328 181.524 274.877 181.598C275.41 181.669 275.692 181.801 275.893 182.002C276.095 182.203 276.226 182.485 276.298 183.019C276.372 183.567 276.373 184.295 276.373 185.338V190.789C276.373 191.832 276.372 192.56 276.298 193.109C276.226 193.643 276.095 193.925 275.893 194.126C275.692 194.327 275.41 194.459 274.877 194.53C274.328 194.604 273.6 194.605 272.557 194.605Z" fill="#C8D7E4" stroke="#5B667C" stroke-width="1.09023"/>
<path d="M272.557 207.688H207.143C206.1 207.688 205.372 207.687 204.823 207.613C204.29 207.542 204.008 207.41 203.807 207.209C203.605 207.008 203.474 206.726 203.402 206.192C203.328 205.643 203.328 204.915 203.328 203.872V194.605H272.557C273.6 194.605 274.328 194.607 274.877 194.681C275.41 194.752 275.692 194.884 275.893 195.085C276.095 195.286 276.226 195.568 276.298 196.102C276.372 196.65 276.373 197.378 276.373 198.421V203.872C276.373 204.915 276.372 205.643 276.298 206.192C276.226 206.726 276.095 207.008 275.893 207.209C275.692 207.41 275.41 207.542 274.877 207.613C274.328 207.687 273.6 207.688 272.557 207.688Z" fill="#EDF7FF" stroke="#5B667C" stroke-width="1.09023"/>
<path d="M212.594 207.688H207.143C206.1 207.688 205.373 207.687 204.824 207.613C204.29 207.542 204.008 207.41 203.807 207.209C203.606 207.008 203.474 206.726 203.403 206.192C203.329 205.643 203.328 204.915 203.328 203.872V194.605H212.594C213.637 194.605 214.365 194.607 214.914 194.681C215.448 194.752 215.73 194.884 215.931 195.085C216.132 195.286 216.264 195.568 216.335 196.102C216.409 196.65 216.411 197.378 216.411 198.421V203.872C216.411 204.915 216.409 205.643 216.335 206.192C216.264 206.726 216.132 207.008 215.931 207.209C215.73 207.41 215.448 207.542 214.914 207.613C214.365 207.687 213.637 207.688 212.594 207.688Z" fill="#EDF7FF" stroke="#5B667C" stroke-width="1.09023"/>
<path d="M47.4253 43.6089L47.4253 190.994C47.4253 192.386 46.2962 193.515 44.9038 193.515C42.6538 193.515 41.6287 193.511 40.7974 193.303C38.261 192.668 36.2804 190.687 35.645 188.151C35.4368 187.319 35.4331 186.294 35.4331 184.043L35.4331 43.6089C35.4333 40.2974 38.1177 37.6128 41.4292 37.6128C44.7406 37.613 47.4251 40.2975 47.4253 43.6089Z" fill="#D5DCE5" stroke="#5B667C" stroke-width="1.09023"/>
<path d="M15.2631 9.2666H74.681C78.8957 9.26672 82.3129 12.6837 82.3129 16.8984V28.3457C82.3129 31.9587 82.3109 34.614 82.0375 36.6475C81.7662 38.6649 81.2361 39.9889 80.2367 40.9883C79.2373 41.9876 77.9134 42.5178 75.8959 42.7891C73.8625 43.0624 71.2071 43.0635 67.5941 43.0635H15.2631C11.6503 43.0635 8.99561 43.0624 6.96228 42.7891C4.9447 42.5178 3.62089 41.9876 2.62146 40.9883C1.62207 39.9889 1.091 38.665 0.819702 36.6475C0.546316 34.614 0.545288 31.9587 0.545288 28.3457V23.9844C0.545288 20.3717 0.546338 17.7169 0.819702 15.6836C1.09098 13.6659 1.622 12.3422 2.62146 11.3428C3.62092 10.3433 4.94454 9.81229 6.96228 9.54102C8.9956 9.26765 11.6504 9.2666 15.2631 9.2666Z" fill="#D5DCE5" stroke="#5B667C" stroke-width="1.09023"/>
<path d="M13.0835 29.981H82.312V34.8872C82.312 36.9583 82.3114 38.4573 82.1577 39.6001C82.0062 40.7267 81.7151 41.4254 81.1948 41.9458C80.6744 42.4663 79.9752 42.7572 78.8481 42.9087C77.7054 43.0623 76.2064 43.064 74.1353 43.064H13.0835C12.0402 43.064 11.3122 43.0626 10.7632 42.9888C10.2299 42.9171 9.94774 42.7856 9.74658 42.5845C9.54545 42.3833 9.41398 42.1012 9.34229 41.5679C9.2685 41.019 9.26709 40.2915 9.26709 39.2485V33.7974C9.26709 32.7541 9.26848 32.026 9.34229 31.4771C9.41399 30.9437 9.54543 30.6616 9.74658 30.4604C9.94774 30.2593 10.2299 30.1279 10.7632 30.0562C11.3122 29.9823 12.0402 29.981 13.0835 29.981Z" fill="#C8D7E4" stroke="#5B667C" stroke-width="1.09023"/>
<path d="M13.0835 16.8984H78.4966C79.5399 16.8984 80.2679 16.8998 80.8169 16.9736C81.35 17.0453 81.6324 17.1768 81.8335 17.3779C82.0345 17.5791 82.1661 17.8614 82.2378 18.3945C82.3116 18.9435 82.312 19.6716 82.312 20.7148V29.9814H13.0835C12.0402 29.9814 11.3122 29.9801 10.7632 29.9062C10.2299 29.8345 9.94774 29.7031 9.74658 29.502C9.54545 29.3008 9.41398 29.0186 9.34229 28.4854C9.2685 27.9364 9.26709 27.209 9.26709 26.166V20.7148C9.26709 19.6716 9.26848 18.9435 9.34229 18.3945C9.41399 17.8612 9.54543 17.5791 9.74658 17.3779C9.94774 17.1768 10.2299 17.0453 10.7632 16.9736C11.3122 16.8998 12.0402 16.8984 13.0835 16.8984Z" fill="#EDF7FF" stroke="#5B667C" stroke-width="1.09023"/>
<path d="M19.6238 133.553H63.2332C65.304 133.553 66.8024 133.554 67.9451 133.708C69.0722 133.86 69.7713 134.15 70.2917 134.671C70.8122 135.191 71.1031 135.891 71.2546 137.018C71.4082 138.16 71.4099 139.659 71.4099 141.729V165.17H28.3455C24.2189 165.17 21.1786 165.169 18.8484 164.855C16.5339 164.544 15.0016 163.933 13.8425 162.774C12.6834 161.615 12.0727 160.083 11.7615 157.769C11.4482 155.438 11.447 152.397 11.447 148.271V141.729C11.447 139.659 11.4487 138.16 11.6023 137.018C11.7538 135.89 12.0447 135.191 12.5652 134.671C13.0857 134.15 13.7848 133.86 14.9119 133.708C16.0546 133.554 17.5529 133.553 19.6238 133.553Z" fill="#C8D7E4" stroke="#5B667C" stroke-width="1.09023"/>
<path d="M9.81226 137.914H11.447V155.357H9.81226C8.76901 155.357 8.04094 155.357 7.49194 155.283C6.95878 155.211 6.67649 155.079 6.47534 154.878C6.27423 154.677 6.14276 154.395 6.07104 153.862C5.99723 153.313 5.99585 152.585 5.99585 151.542V141.73C5.99585 140.687 5.99724 139.959 6.07104 139.41C6.14275 138.876 6.27419 138.594 6.47534 138.393C6.6765 138.192 6.95862 138.06 7.49194 137.989C8.04094 137.915 8.76898 137.914 9.81226 137.914Z" fill="#EDF7FF" stroke="#5B667C" stroke-width="1.09023"/>
<path d="M71.4092 165.17H74.1348C75.178 165.17 75.9061 165.169 76.4551 165.095C76.9884 165.023 77.2705 164.892 77.4717 164.69C77.6728 164.489 77.8043 164.207 77.876 163.674C77.9498 163.125 77.9512 162.397 77.9512 161.354V142.82C77.9512 141.006 77.95 139.7 77.8164 138.706C77.6848 137.727 77.4338 137.132 76.9932 136.691C76.5525 136.251 75.9572 136 74.9785 135.868C74.0867 135.748 72.9442 135.736 71.4092 135.734V165.17Z" fill="#EDF7FF" stroke="#5B667C" stroke-width="1.09023"/>
<path d="M73.0459 16.8984H78.4971C79.54 16.8984 80.2675 16.8998 80.8164 16.9736C81.3497 17.0453 81.6319 17.1768 81.833 17.3779C82.0342 17.5791 82.1656 17.8612 82.2373 18.3945C82.3111 18.9435 82.3125 19.6716 82.3125 20.7148V29.9814H73.0459C72.0026 29.9814 71.2746 29.9801 70.7256 29.9062C70.1923 29.8345 69.9101 29.7031 69.709 29.502C69.5079 29.3008 69.3764 29.0186 69.3047 28.4854C69.2309 27.9364 69.2295 27.209 69.2295 26.166V20.7148C69.2295 19.6716 69.2309 18.9435 69.3047 18.3945C69.3764 17.8612 69.5078 17.5791 69.709 17.3779C69.9101 17.1768 70.1923 17.0453 70.7256 16.9736C71.2746 16.8998 72.0026 16.8984 73.0459 16.8984Z" fill="#EDF7FF" stroke="#5B667C" stroke-width="1.09023"/>
<path d="M15.2627 215.32H74.6807C78.8954 215.32 82.3125 211.903 82.3125 207.688V196.241C82.3125 192.628 82.3105 189.972 82.0371 187.939C81.7658 185.921 81.2357 184.598 80.2363 183.598C79.2369 182.599 77.913 182.069 75.8955 181.797C73.8621 181.524 71.2067 181.523 67.5938 181.523H15.2627C11.65 181.523 8.99525 181.524 6.96191 181.797C4.94434 182.069 3.62052 182.599 2.62109 183.598C1.6217 184.598 1.09063 185.921 0.819336 187.939C0.54595 189.972 0.544922 192.628 0.544922 196.241V200.602C0.544922 204.215 0.545972 206.87 0.819336 208.903C1.09061 210.921 1.62164 212.244 2.62109 213.244C3.62055 214.243 4.94418 214.774 6.96191 215.045C8.99524 215.319 11.65 215.32 15.2627 215.32Z" fill="#D5DCE5" stroke="#5B667C" stroke-width="1.09023"/>
<path d="M13.0831 194.605H82.3116V189.699C82.3116 187.628 82.311 186.129 82.1573 184.986C82.0058 183.86 81.7147 183.161 81.1945 182.641C80.674 182.12 79.9748 181.829 78.8478 181.678C77.705 181.524 76.206 181.522 74.1349 181.522H13.0831C12.0398 181.522 11.3118 181.524 10.7628 181.598C10.2295 181.669 9.94737 181.801 9.74622 182.002C9.54508 182.203 9.41362 182.485 9.34192 183.019C9.26813 183.567 9.26672 184.295 9.26672 185.338V190.789C9.26672 191.832 9.26811 192.56 9.34192 193.109C9.41362 193.643 9.54506 193.925 9.74622 194.126C9.94737 194.327 10.2295 194.459 10.7628 194.53C11.3118 194.604 12.0399 194.605 13.0831 194.605Z" fill="#C8D7E4" stroke="#5B667C" stroke-width="1.09023"/>
<path d="M13.0831 207.688H78.4962C79.5395 207.688 80.2675 207.687 80.8165 207.613C81.3496 207.541 81.632 207.41 81.8331 207.208C82.0342 207.007 82.1657 206.725 82.2374 206.192C82.3112 205.643 82.3116 204.915 82.3116 203.872V194.605H13.0831C12.0398 194.605 11.3118 194.606 10.7628 194.68C10.2295 194.752 9.94737 194.883 9.74622 195.084C9.54508 195.286 9.41362 195.568 9.34192 196.101C9.26813 196.65 9.26672 197.377 9.26672 198.42V203.872C9.26672 204.915 9.26811 205.643 9.34192 206.192C9.41362 206.725 9.54506 207.007 9.74622 207.208C9.94737 207.41 10.2295 207.541 10.7628 207.613C11.3118 207.687 12.0399 207.688 13.0831 207.688Z" fill="#EDF7FF" stroke="#5B667C" stroke-width="1.09023"/>
<path d="M73.0455 207.688H78.4967C79.5397 207.688 80.2671 207.687 80.816 207.613C81.3493 207.541 81.6315 207.41 81.8326 207.208C82.0338 207.007 82.1652 206.725 82.2369 206.192C82.3107 205.643 82.3121 204.915 82.3121 203.872V194.605H73.0455C72.0023 194.605 71.2742 194.606 70.7252 194.68C70.1919 194.752 69.9098 194.883 69.7086 195.084C69.5075 195.286 69.376 195.568 69.3043 196.101C69.2305 196.65 69.2291 197.377 69.2291 198.42V203.872C69.2291 204.915 69.2305 205.643 69.3043 206.192C69.376 206.725 69.5075 207.007 69.7086 207.208C69.9098 207.41 70.1919 207.541 70.7252 207.613C71.2742 207.687 72.0023 207.688 73.0455 207.688Z" fill="#EDF7FF" stroke="#5B667C" stroke-width="1.09023"/>
<path d="M266.016 91.0342H222.406C220.335 91.0342 218.837 91.0325 217.694 90.8789C216.567 90.7274 215.868 90.4365 215.348 89.916C214.827 89.3955 214.536 88.6964 214.385 87.5693C214.231 86.4266 214.229 84.9283 214.229 82.8574V59.417H257.294C261.42 59.417 264.461 59.4182 266.791 59.7314C269.105 60.0426 270.638 60.6535 271.797 61.8125C272.956 62.9716 273.567 64.5037 273.878 66.8184C274.191 69.1487 274.192 72.1895 274.192 76.3164V82.8574C274.192 84.9283 274.191 86.4266 274.037 87.5693C273.885 88.6964 273.595 89.3955 273.074 89.916C272.554 90.4365 271.855 90.7274 270.727 90.8789C269.585 91.0325 268.086 91.0342 266.016 91.0342Z" fill="#C8D7E4" stroke="#5B667C" stroke-width="1.09023"/>
<path d="M275.827 86.6733H274.192V69.23H275.827C276.87 69.23 277.598 69.2304 278.147 69.3042C278.68 69.3759 278.963 69.5074 279.164 69.7085C279.365 69.9096 279.496 70.192 279.568 70.7251C279.642 71.2741 279.643 72.0021 279.643 73.0454V82.8569C279.643 83.9002 279.642 84.6282 279.568 85.1772C279.496 85.7106 279.365 85.9927 279.164 86.1938C278.963 86.395 278.681 86.5264 278.147 86.5981C277.598 86.672 276.87 86.6733 275.827 86.6733Z" fill="#EDF7FF" stroke="#5B667C" stroke-width="1.09023"/>
<path d="M214.23 59.417H211.505C210.461 59.417 209.733 59.4184 209.184 59.4922C208.651 59.5639 208.369 59.6953 208.168 59.8965C207.966 60.0976 207.835 60.3798 207.763 60.9131C207.689 61.4621 207.688 62.1901 207.688 63.2334V81.7666C207.688 83.5806 207.689 84.8866 207.823 85.8809C207.954 86.8595 208.205 87.4549 208.646 87.8955C209.087 88.3362 209.682 88.5872 210.661 88.7188C211.553 88.8386 212.695 88.8511 214.23 88.8525V59.417Z" fill="#EDF7FF" stroke="#5B667C" stroke-width="1.09023"/>
<path d="M55.0449 89.2783L55.0449 58.7217C55.0449 56.6508 55.0466 55.1525 55.2002 54.0098C55.3517 52.8827 55.6426 52.1836 56.1631 51.6631C56.6836 51.1426 57.3827 50.8517 58.5098 50.7002C59.6525 50.5466 61.1508 50.5449 63.2217 50.5449L93.7783 50.5449C95.8492 50.5449 97.3475 50.5466 98.4902 50.7002C99.6173 50.8517 100.316 51.1426 100.837 51.6631C101.357 52.1836 101.648 52.8827 101.8 54.0098C101.953 55.1525 101.955 56.6508 101.955 58.7217L101.955 89.2783C101.955 91.3492 101.953 92.8475 101.8 93.9902C101.648 95.1173 101.357 95.8164 100.837 96.3369C100.316 96.8574 99.6173 97.1483 98.4902 97.2998C97.3475 97.4534 95.8492 97.4551 93.7783 97.4551L63.2217 97.4551C61.1508 97.4551 59.6525 97.4534 58.5098 97.2998C57.3827 97.1483 56.6836 96.8574 56.1631 96.3369C55.6426 95.8164 55.3517 95.1173 55.2002 93.9902C55.0466 92.8475 55.0449 91.3492 55.0449 89.2783Z" fill="#C7D7E4" stroke="#5B667C" stroke-width="1.09023"/>
<rect x="183.545" y="174.455" width="46.9098" height="46.9098" rx="3.81579" transform="rotate(-90 183.545 174.455)" fill="#C7D7E4" stroke="#5B667C" stroke-width="1.09023"/>
<rect x="528.095" y="146.545" width="8.90977" height="127.91" rx="3.81579" transform="rotate(90 528.095 146.545)" fill="#EDF7FF" stroke="#5B667C" stroke-width="1.09023"/>
<rect x="542.095" y="69.5451" width="8.90977" height="127.91" rx="3.81579" transform="rotate(90 542.095 69.5451)" fill="#EDF7FF" stroke="#5B667C" stroke-width="1.09023"/>
<rect x="386.185" y="88.5451" width="8.90977" height="52.9098" rx="3.81579" fill="#EDF7FF" stroke="#5B667C" stroke-width="1.09023"/>
<rect x="542.185" y="80.5451" width="8.90977" height="52.9098" rx="3.81579" fill="#EDF7FF" stroke="#5B667C" stroke-width="1.09023"/>
<path d="M451.915 35.4326H485.005C485.474 35.4326 485.633 35.4295 485.784 35.3984C485.935 35.3673 486.082 35.3072 486.513 35.1221L527.927 17.2979C528.318 17.1294 528.582 17.0137 528.866 16.9551C529.151 16.8964 529.44 16.8984 529.866 16.8984L572.304 16.8984C573.213 16.8984 573.847 16.898 574.331 16.8408C574.803 16.785 575.061 16.6819 575.249 16.5273C575.332 16.4594 575.408 16.3836 575.475 16.3008C575.63 16.1125 575.733 15.8547 575.789 15.3828C575.846 14.8989 575.847 14.2648 575.847 13.3555V4.36133C575.847 3.31804 575.845 2.59002 575.771 2.04102C575.7 1.50799 575.569 1.22554 575.368 1.02441C575.167 0.823258 574.884 0.69182 574.35 0.620117C573.802 0.546367 573.074 0.544922 572.031 0.544922L364.889 0.544922C363.845 0.544922 363.117 0.546311 362.568 0.620117C362.035 0.691814 361.753 0.823285 361.552 1.02441C361.35 1.22556 361.219 1.50774 361.147 2.04102C361.074 2.59002 361.072 3.31804 361.072 4.36133V13.083C361.072 14.126 361.074 14.8534 361.147 15.4023C361.219 15.9357 361.35 16.2188 361.552 16.4199C361.753 16.6209 362.035 16.7516 362.568 16.8232C363.117 16.8971 363.845 16.8984 364.889 16.8984L407.054 16.8984C407.48 16.8984 407.768 16.8965 408.053 16.9551C408.337 17.0137 408.601 17.1293 408.993 17.2979L450.406 35.1221C450.837 35.3074 450.985 35.3674 451.136 35.3984C451.286 35.4295 451.446 35.4326 451.915 35.4326Z" fill="#D5DCE5" stroke="#5B667C" stroke-width="1.09023"/>
<path d="M459.738 35.4326H478.221C478.76 35.4326 479.136 35.4321 479.431 35.4111C479.719 35.3905 479.888 35.3516 480.016 35.2959C480.394 35.1309 480.696 34.8286 480.861 34.4502C480.917 34.3224 480.955 34.1547 480.975 33.8662C480.996 33.572 480.997 33.1951 480.997 32.6553V26.165C480.997 25.122 480.996 24.3946 480.922 23.8457C480.85 23.3127 480.719 23.0302 480.518 22.8291C480.317 22.6279 480.034 22.4965 479.501 22.4248C478.952 22.351 478.224 22.3496 477.182 22.3496H459.738C458.695 22.3496 457.967 22.351 457.418 22.4248C456.885 22.4965 456.602 22.6279 456.401 22.8291C456.2 23.0303 456.069 23.3124 455.997 23.8457C455.923 24.3946 455.922 25.1221 455.922 26.165V31.6162C455.922 32.6595 455.923 33.3875 455.997 33.9365C456.069 34.4698 456.2 34.752 456.401 34.9531C456.602 35.1543 456.885 35.2857 457.418 35.3574C457.967 35.4312 458.695 35.4326 459.738 35.4326Z" fill="#D5DCE5" stroke="#5B667C" stroke-width="1.09023"/>
<path d="M460.58 174.009C460.58 174.113 460.55 174.216 460.493 174.304L450.925 189.154H485.994L476.426 174.304C476.369 174.216 476.339 174.113 476.339 174.009V50.5771C476.339 50.4726 476.369 50.3701 476.426 50.2822L485.993 35.4326H450.926L460.493 50.2822C460.55 50.3701 460.58 50.4726 460.58 50.5771V174.009Z" fill="#D5DCE5" stroke="#5B667C" stroke-width="1.09023" stroke-linejoin="round"/>
<path d="M451.915 189.154H485.005C485.474 189.154 485.633 189.157 485.784 189.188C485.935 189.219 486.082 189.279 486.513 189.464L527.927 207.289C528.318 207.457 528.582 207.573 528.866 207.631C529.151 207.69 529.44 207.688 529.866 207.688H572.304C573.213 207.688 573.847 207.688 574.331 207.746C574.803 207.801 575.061 207.905 575.249 208.059C575.332 208.127 575.408 208.203 575.475 208.286C575.63 208.474 575.733 208.732 575.789 209.204C575.846 209.688 575.847 210.322 575.847 211.231V220.225C575.847 221.268 575.845 221.996 575.771 222.545C575.7 223.078 575.569 223.361 575.368 223.562C575.167 223.763 574.884 223.895 574.35 223.966C573.802 224.04 573.074 224.042 572.031 224.042H364.889C363.845 224.042 363.117 224.04 362.568 223.966C362.035 223.895 361.753 223.763 361.552 223.562C361.35 223.361 361.219 223.079 361.147 222.545C361.074 221.996 361.072 221.268 361.072 220.225V211.503C361.072 210.46 361.074 209.733 361.147 209.184C361.219 208.651 361.35 208.368 361.552 208.167C361.753 207.966 362.035 207.835 362.568 207.763C363.117 207.689 363.845 207.688 364.889 207.688H407.054C407.48 207.688 407.768 207.69 408.053 207.631C408.337 207.573 408.601 207.457 408.993 207.289L450.406 189.464C450.837 189.279 450.985 189.219 451.136 189.188C451.286 189.157 451.446 189.154 451.915 189.154Z" fill="#D5DCE5" stroke="#5B667C" stroke-width="1.09023"/>
<path d="M477.181 189.154L458.698 189.154C458.159 189.154 457.783 189.154 457.489 189.175C457.2 189.196 457.031 189.235 456.904 189.291C456.525 189.456 456.223 189.758 456.058 190.136C456.002 190.264 455.964 190.432 455.944 190.72C455.923 191.014 455.922 191.391 455.922 191.931L455.922 198.421C455.922 199.464 455.924 200.192 455.997 200.741C456.069 201.274 456.2 201.556 456.401 201.757C456.602 201.958 456.885 202.09 457.418 202.162C457.967 202.235 458.695 202.237 459.738 202.237L477.181 202.237C478.224 202.237 478.952 202.235 479.501 202.162C480.035 202.09 480.317 201.958 480.518 201.757C480.719 201.556 480.85 201.274 480.922 200.741C480.996 200.192 480.997 199.464 480.997 198.421L480.997 192.97C480.997 191.927 480.996 191.199 480.922 190.65C480.85 190.117 480.719 189.834 480.518 189.633C480.317 189.432 480.035 189.301 479.501 189.229C478.952 189.155 478.224 189.154 477.181 189.154Z" fill="#D5DCE5" stroke="#5B667C" stroke-width="1.09023"/>
<path d="M563.854 43.6084L563.854 190.993C563.854 192.386 564.983 193.515 566.376 193.515C568.626 193.515 569.651 193.511 570.482 193.303C573.019 192.667 574.999 190.687 575.635 188.15C575.843 187.319 575.846 186.293 575.846 184.043L575.846 43.6084C575.846 40.2969 573.162 37.6123 569.85 37.6123C566.539 37.6125 563.854 40.297 563.854 43.6084Z" fill="#D5DCE5" stroke="#5B667C" stroke-width="1.09023"/>
<path d="M596.017 9.2666H536.599C532.384 9.26672 528.967 12.6837 528.967 16.8984V28.3457C528.967 31.9587 528.969 34.614 529.242 36.6475C529.513 38.6649 530.044 39.9889 531.043 40.9883C532.042 41.9876 533.366 42.5178 535.384 42.7891C537.417 43.0624 540.073 43.0635 543.686 43.0635H596.017C599.629 43.0635 602.284 43.0624 604.317 42.7891C606.335 42.5178 607.659 41.9876 608.658 40.9883C609.658 39.9889 610.189 38.665 610.46 36.6475C610.733 34.614 610.734 31.9587 610.734 28.3457V23.9844C610.734 20.3717 610.733 17.7169 610.46 15.6836C610.189 13.6659 609.658 12.3422 608.658 11.3428C607.659 10.3433 606.335 9.81229 604.317 9.54102C602.284 9.26765 599.629 9.2666 596.017 9.2666Z" fill="#D5DCE5" stroke="#5B667C" stroke-width="1.09023"/>
<path d="M598.196 29.981H528.968V34.8872C528.968 36.9583 528.968 38.4573 529.122 39.6001C529.273 40.7267 529.565 41.4254 530.085 41.9458C530.605 42.4663 531.304 42.7572 532.432 42.9087C533.574 43.0623 535.073 43.064 537.144 43.064H598.196C599.239 43.064 599.967 43.0626 600.516 42.9888C601.05 42.9171 601.332 42.7856 601.533 42.5845C601.734 42.3833 601.866 42.1012 601.937 41.5679C602.011 41.019 602.013 40.2915 602.013 39.2485V33.7974C602.013 32.7541 602.011 32.026 601.937 31.4771C601.866 30.9437 601.734 30.6616 601.533 30.4604C601.332 30.2593 601.05 30.1279 600.516 30.0562C599.967 29.9823 599.239 29.981 598.196 29.981Z" fill="#C8D7E4" stroke="#5B667C" stroke-width="1.09023"/>
<path d="M598.196 16.8979H532.783C531.74 16.8979 531.012 16.8993 530.463 16.9731C529.93 17.0449 529.647 17.1763 529.446 17.3774C529.245 17.5786 529.114 17.8609 529.042 18.394C528.968 18.943 528.968 19.6711 528.968 20.7144V29.981H598.196C599.239 29.981 599.967 29.9796 600.516 29.9058C601.05 29.8341 601.332 29.7026 601.533 29.5015C601.734 29.3003 601.866 29.0181 601.937 28.4849C602.011 27.936 602.013 27.2085 602.013 26.1655V20.7144C602.013 19.6711 602.011 18.943 601.937 18.394C601.866 17.8607 601.734 17.5786 601.533 17.3774C601.332 17.1763 601.05 17.0448 600.516 16.9731C599.967 16.8993 599.239 16.8979 598.196 16.8979Z" fill="#EDF7FF" stroke="#5B667C" stroke-width="1.09023"/>
<path d="M538.234 16.8979H532.783C531.74 16.8979 531.012 16.8994 530.463 16.9731C529.93 17.0448 529.648 17.1763 529.447 17.3774C529.245 17.5786 529.114 17.8607 529.042 18.394C528.969 18.943 528.967 19.6711 528.967 20.7144V29.981H538.234C539.277 29.981 540.005 29.9796 540.554 29.9058C541.087 29.8341 541.37 29.7026 541.571 29.5015C541.772 29.3003 541.903 29.0181 541.975 28.4849C542.049 27.936 542.05 27.2085 542.05 26.1655V20.7144C542.05 19.6711 542.049 18.943 541.975 18.394C541.903 17.8607 541.772 17.5786 541.571 17.3774C541.37 17.1763 541.087 17.0448 540.554 16.9731C540.005 16.8993 539.277 16.8979 538.234 16.8979Z" fill="#EDF7FF" stroke="#5B667C" stroke-width="1.09023"/>
<path d="M596.017 215.32H536.599C532.384 215.32 528.967 211.903 528.967 207.688V196.241C528.967 192.628 528.969 189.972 529.242 187.939C529.513 185.921 530.044 184.598 531.043 183.598C532.042 182.599 533.366 182.069 535.384 181.797C537.417 181.524 540.073 181.523 543.686 181.523H596.017C599.629 181.523 602.284 181.524 604.317 181.797C606.335 182.069 607.659 182.599 608.658 183.598C609.658 184.598 610.189 185.921 610.46 187.939C610.733 189.972 610.734 192.628 610.734 196.241V200.602C610.734 204.215 610.733 206.87 610.46 208.903C610.189 210.921 609.658 212.244 608.658 213.244C607.659 214.243 606.335 214.774 604.317 215.045C602.284 215.319 599.629 215.32 596.017 215.32Z" fill="#D5DCE5" stroke="#5B667C" stroke-width="1.09023"/>
<path d="M598.196 194.605H528.968V189.699C528.968 187.628 528.968 186.129 529.122 184.986C529.273 183.86 529.565 183.161 530.085 182.641C530.605 182.12 531.304 181.829 532.432 181.678C533.574 181.524 535.073 181.522 537.144 181.522H598.196C599.239 181.522 599.967 181.524 600.516 181.598C601.05 181.669 601.332 181.801 601.533 182.002C601.734 182.203 601.866 182.485 601.937 183.019C602.011 183.567 602.013 184.295 602.013 185.338V190.789C602.013 191.832 602.011 192.56 601.937 193.109C601.866 193.643 601.734 193.925 601.533 194.126C601.332 194.327 601.05 194.459 600.516 194.53C599.967 194.604 599.239 194.605 598.196 194.605Z" fill="#C8D7E4" stroke="#5B667C" stroke-width="1.09023"/>
<path d="M598.196 207.688H532.783C531.74 207.688 531.012 207.687 530.463 207.613C529.93 207.542 529.647 207.41 529.446 207.209C529.245 207.008 529.114 206.726 529.042 206.192C528.968 205.643 528.968 204.915 528.968 203.872V194.605H598.196C599.239 194.605 599.967 194.607 600.516 194.681C601.05 194.752 601.332 194.884 601.533 195.085C601.734 195.286 601.866 195.568 601.937 196.102C602.011 196.65 602.013 197.378 602.013 198.421V203.872C602.013 204.915 602.011 205.643 601.937 206.192C601.866 206.726 601.734 207.008 601.533 207.209C601.332 207.41 601.05 207.542 600.516 207.613C599.967 207.687 599.239 207.688 598.196 207.688Z" fill="#EDF7FF" stroke="#5B667C" stroke-width="1.09023"/>
<path d="M538.234 207.688H532.783C531.74 207.688 531.012 207.687 530.463 207.613C529.93 207.542 529.648 207.41 529.447 207.209C529.245 207.008 529.114 206.726 529.042 206.192C528.969 205.643 528.967 204.915 528.967 203.872V194.605H538.234C539.277 194.605 540.005 194.607 540.554 194.681C541.087 194.752 541.37 194.884 541.571 195.085C541.772 195.286 541.903 195.568 541.975 196.102C542.049 196.65 542.05 197.378 542.05 198.421V203.872C542.05 204.915 542.049 205.643 541.975 206.192C541.903 206.726 541.772 207.008 541.571 207.209C541.37 207.41 541.087 207.542 540.554 207.613C540.005 207.687 539.277 207.688 538.234 207.688Z" fill="#EDF7FF" stroke="#5B667C" stroke-width="1.09023"/>
<path d="M373.065 43.6089L373.065 190.994C373.065 192.386 371.936 193.515 370.543 193.515C368.293 193.515 367.268 193.511 366.437 193.303C363.901 192.668 361.92 190.687 361.285 188.151C361.076 187.319 361.073 186.294 361.073 184.043L361.073 43.6089C361.073 40.2974 363.757 37.6128 367.069 37.6128C370.38 37.613 373.065 40.2975 373.065 43.6089Z" fill="#D5DCE5" stroke="#5B667C" stroke-width="1.09023"/>
<path d="M340.903 9.2666H400.321C404.535 9.26672 407.953 12.6837 407.953 16.8984V28.3457C407.953 31.9587 407.951 34.614 407.677 36.6475C407.406 38.6649 406.876 39.9889 405.876 40.9883C404.877 41.9876 403.553 42.5178 401.536 42.7891C399.502 43.0624 396.847 43.0635 393.234 43.0635H340.903C337.29 43.0635 334.635 43.0624 332.602 42.7891C330.584 42.5178 329.261 41.9876 328.261 40.9883C327.262 39.9889 326.731 38.665 326.459 36.6475C326.186 34.614 326.185 31.9587 326.185 28.3457V23.9844C326.185 20.3717 326.186 17.7169 326.459 15.6836C326.731 13.6659 327.262 12.3422 328.261 11.3428C329.261 10.3433 330.584 9.81229 332.602 9.54102C334.635 9.26765 337.29 9.2666 340.903 9.2666Z" fill="#D5DCE5" stroke="#5B667C" stroke-width="1.09023"/>
<path d="M338.723 29.981H407.952V34.8872C407.952 36.9583 407.951 38.4573 407.797 39.6001C407.646 40.7267 407.355 41.4254 406.834 41.9458C406.314 42.4663 405.615 42.7572 404.488 42.9087C403.345 43.0623 401.846 43.064 399.775 43.064H338.723C337.68 43.064 336.952 43.0626 336.403 42.9888C335.87 42.9171 335.587 42.7856 335.386 42.5845C335.185 42.3833 335.054 42.1012 334.982 41.5679C334.908 41.019 334.907 40.2915 334.907 39.2485V33.7974C334.907 32.7541 334.908 32.026 334.982 31.4771C335.054 30.9437 335.185 30.6616 335.386 30.4604C335.587 30.2593 335.87 30.1279 336.403 30.0562C336.952 29.9823 337.68 29.981 338.723 29.981Z" fill="#C8D7E4" stroke="#5B667C" stroke-width="1.09023"/>
<path d="M338.723 16.8984H404.136C405.18 16.8984 405.908 16.8998 406.457 16.9736C406.99 17.0453 407.272 17.1768 407.473 17.3779C407.674 17.5791 407.806 17.8614 407.877 18.3945C407.951 18.9435 407.952 19.6716 407.952 20.7148V29.9814H338.723C337.68 29.9814 336.952 29.9801 336.403 29.9062C335.87 29.8345 335.587 29.7031 335.386 29.502C335.185 29.3008 335.054 29.0186 334.982 28.4854C334.908 27.9364 334.907 27.209 334.907 26.166V20.7148C334.907 19.6716 334.908 18.9435 334.982 18.3945C335.054 17.8612 335.185 17.5791 335.386 17.3779C335.587 17.1768 335.87 17.0453 336.403 16.9736C336.952 16.8998 337.68 16.8984 338.723 16.8984Z" fill="#EDF7FF" stroke="#5B667C" stroke-width="1.09023"/>
<path d="M345.263 133.553H388.873C390.944 133.553 392.442 133.554 393.585 133.708C394.712 133.86 395.411 134.15 395.931 134.671C396.452 135.191 396.743 135.891 396.894 137.018C397.048 138.16 397.05 139.659 397.05 141.729V165.17H353.985C349.858 165.17 346.818 165.169 344.488 164.855C342.174 164.544 340.641 163.933 339.482 162.774C338.323 161.615 337.712 160.083 337.401 157.769C337.088 155.438 337.087 152.397 337.087 148.271V141.729C337.087 139.659 337.088 138.16 337.242 137.018C337.393 135.89 337.684 135.191 338.205 134.671C338.725 134.15 339.424 133.86 340.552 133.708C341.694 133.554 343.193 133.553 345.263 133.553Z" fill="#C8D7E4" stroke="#5B667C" stroke-width="1.09023"/>
<path d="M335.452 137.914H337.087V155.357H335.452C334.409 155.357 333.681 155.357 333.132 155.283C332.598 155.211 332.316 155.079 332.115 154.878C331.914 154.677 331.782 154.395 331.711 153.862C331.637 153.313 331.635 152.585 331.635 151.542V141.73C331.635 140.687 331.637 139.959 331.711 139.41C331.782 138.876 331.914 138.594 332.115 138.393C332.316 138.192 332.598 138.06 333.132 137.989C333.681 137.915 334.409 137.914 335.452 137.914Z" fill="#EDF7FF" stroke="#5B667C" stroke-width="1.09023"/>
<path d="M397.049 165.17H399.774C400.818 165.17 401.546 165.169 402.095 165.095C402.628 165.023 402.91 164.892 403.111 164.69C403.312 164.489 403.444 164.207 403.516 163.674C403.589 163.125 403.591 162.397 403.591 161.354V142.82C403.591 141.006 403.59 139.7 403.456 138.706C403.324 137.727 403.073 137.132 402.633 136.691C402.192 136.251 401.597 136 400.618 135.868C399.726 135.748 398.584 135.736 397.049 135.734V165.17Z" fill="#EDF7FF" stroke="#5B667C" stroke-width="1.09023"/>
<path d="M398.686 16.8984H404.137C405.18 16.8984 405.907 16.8998 406.456 16.9736C406.989 17.0453 407.272 17.1768 407.473 17.3779C407.674 17.5791 407.805 17.8612 407.877 18.3945C407.951 18.9435 407.952 19.6716 407.952 20.7148V29.9814H398.686C397.642 29.9814 396.914 29.9801 396.365 29.9062C395.832 29.8345 395.55 29.7031 395.349 29.502C395.147 29.3008 395.016 29.0186 394.944 28.4854C394.871 27.9364 394.869 27.209 394.869 26.166V20.7148C394.869 19.6716 394.871 18.9435 394.944 18.3945C395.016 17.8612 395.147 17.5791 395.349 17.3779C395.55 17.1768 395.832 17.0453 396.365 16.9736C396.914 16.8998 397.642 16.8984 398.686 16.8984Z" fill="#EDF7FF" stroke="#5B667C" stroke-width="1.09023"/>
<path d="M340.902 215.32H400.32C404.535 215.32 407.952 211.903 407.952 207.688V196.241C407.952 192.628 407.95 189.972 407.677 187.939C407.405 185.921 406.875 184.598 405.876 183.598C404.877 182.599 403.553 182.069 401.535 181.797C399.502 181.524 396.846 181.523 393.233 181.523H340.902C337.29 181.523 334.635 181.524 332.602 181.797C330.584 182.069 329.26 182.599 328.261 183.598C327.261 184.598 326.73 185.921 326.459 187.939C326.186 189.972 326.185 192.628 326.185 196.241V200.602C326.185 204.215 326.186 206.87 326.459 208.903C326.73 210.921 327.261 212.244 328.261 213.244C329.26 214.243 330.584 214.774 332.602 215.045C334.635 215.319 337.29 215.32 340.902 215.32Z" fill="#D5DCE5" stroke="#5B667C" stroke-width="1.09023"/>
<path d="M338.723 194.605H407.951V189.699C407.951 187.628 407.951 186.129 407.797 184.986C407.645 183.86 407.354 183.161 406.834 182.641C406.314 182.12 405.614 181.829 404.487 181.678C403.345 181.524 401.846 181.522 399.775 181.522H338.723C337.679 181.522 336.951 181.524 336.402 181.598C335.869 181.669 335.587 181.801 335.386 182.002C335.185 182.203 335.053 182.485 334.982 183.019C334.908 183.567 334.906 184.295 334.906 185.338V190.789C334.906 191.832 334.908 192.56 334.982 193.109C335.053 193.643 335.185 193.925 335.386 194.126C335.587 194.327 335.869 194.459 336.402 194.53C336.951 194.604 337.68 194.605 338.723 194.605Z" fill="#C8D7E4" stroke="#5B667C" stroke-width="1.09023"/>
<path d="M338.723 207.688H404.136C405.179 207.688 405.907 207.687 406.456 207.613C406.989 207.541 407.272 207.41 407.473 207.208C407.674 207.007 407.805 206.725 407.877 206.192C407.951 205.643 407.951 204.915 407.951 203.872V194.605H338.723C337.679 194.605 336.951 194.606 336.402 194.68C335.869 194.752 335.587 194.883 335.386 195.084C335.185 195.286 335.053 195.568 334.982 196.101C334.908 196.65 334.906 197.377 334.906 198.42V203.872C334.906 204.915 334.908 205.643 334.982 206.192C335.053 206.725 335.185 207.007 335.386 207.208C335.587 207.41 335.869 207.541 336.402 207.613C336.951 207.687 337.68 207.688 338.723 207.688Z" fill="#EDF7FF" stroke="#5B667C" stroke-width="1.09023"/>
<path d="M398.685 207.688H404.136C405.179 207.688 405.907 207.687 406.456 207.613C406.989 207.541 407.271 207.41 407.472 207.208C407.673 207.007 407.805 206.725 407.877 206.192C407.95 205.643 407.952 204.915 407.952 203.872V194.605H398.685C397.642 194.605 396.914 194.606 396.365 194.68C395.832 194.752 395.549 194.883 395.348 195.084C395.147 195.286 395.016 195.568 394.944 196.101C394.87 196.65 394.869 197.377 394.869 198.42V203.872C394.869 204.915 394.87 205.643 394.944 206.192C395.016 206.725 395.147 207.007 395.348 207.208C395.549 207.41 395.832 207.541 396.365 207.613C396.914 207.687 397.642 207.688 398.685 207.688Z" fill="#EDF7FF" stroke="#5B667C" stroke-width="1.09023"/>
<path d="M591.655 91.0342H548.046C545.975 91.0342 544.477 91.0325 543.334 90.8789C542.207 90.7274 541.508 90.4365 540.987 89.916C540.467 89.3955 540.176 88.6964 540.024 87.5693C539.871 86.4266 539.869 84.9283 539.869 82.8574V59.417H582.933C587.06 59.417 590.1 59.4182 592.431 59.7314C594.745 60.0426 596.277 60.6535 597.436 61.8125C598.596 62.9716 599.206 64.5037 599.517 66.8184C599.831 69.1487 599.832 72.1895 599.832 76.3164V82.8574C599.832 84.9283 599.83 86.4266 599.677 87.5693C599.525 88.6964 599.234 89.3955 598.714 89.916C598.193 90.4365 597.494 90.7274 596.367 90.8789C595.224 91.0325 593.726 91.0342 591.655 91.0342Z" fill="#C8D7E4" stroke="#5B667C" stroke-width="1.09023"/>
<path d="M601.467 86.6733H599.832V69.23H601.467C602.51 69.23 603.238 69.2304 603.787 69.3042C604.32 69.3759 604.602 69.5074 604.803 69.7085C605.005 69.9096 605.136 70.192 605.208 70.7251C605.282 71.2741 605.283 72.0021 605.283 73.0454V82.8569C605.283 83.9002 605.282 84.6282 605.208 85.1772C605.136 85.7106 605.005 85.9927 604.803 86.1938C604.602 86.395 604.32 86.5264 603.787 86.5981C603.238 86.672 602.51 86.6733 601.467 86.6733Z" fill="#EDF7FF" stroke="#5B667C" stroke-width="1.09023"/>
<path d="M539.87 59.417H537.144C536.101 59.417 535.373 59.4184 534.824 59.4922C534.291 59.5639 534.008 59.6953 533.807 59.8965C533.606 60.0976 533.475 60.3798 533.403 60.9131C533.329 61.4621 533.328 62.1901 533.328 63.2334V81.7666C533.328 83.5806 533.329 84.8866 533.463 85.8809C533.594 86.8595 533.845 87.4549 534.286 87.8955C534.726 88.3362 535.322 88.5872 536.3 88.7188C537.192 88.8386 538.335 88.8511 539.87 88.8525V59.417Z" fill="#EDF7FF" stroke="#5B667C" stroke-width="1.09023"/>
<path d="M380.685 89.2783L380.685 58.7217C380.685 56.6508 380.686 55.1525 380.84 54.0098C380.991 52.8827 381.282 52.1836 381.803 51.6631C382.323 51.1426 383.022 50.8517 384.149 50.7002C385.292 50.5466 386.79 50.5449 388.861 50.5449L419.418 50.5449C421.489 50.5449 422.987 50.5466 424.13 50.7002C425.257 50.8517 425.956 51.1426 426.477 51.6631C426.997 52.1836 427.288 52.8827 427.439 54.0098C427.593 55.1525 427.595 56.6508 427.595 58.7217L427.595 89.2783C427.595 91.3492 427.593 92.8475 427.439 93.9902C427.288 95.1173 426.997 95.8164 426.477 96.3369C425.956 96.8574 425.257 97.1483 424.13 97.2998C422.987 97.4534 421.489 97.4551 419.418 97.4551L388.861 97.4551C386.79 97.4551 385.292 97.4534 384.149 97.2998C383.022 97.1483 382.323 96.8574 381.803 96.3369C381.282 95.8164 380.991 95.1173 380.84 93.9902C380.686 92.8475 380.685 91.3492 380.685 89.2783Z" fill="#C7D7E4" stroke="#5B667C" stroke-width="1.09023"/>
<rect x="509.185" y="174.455" width="46.9098" height="46.9098" rx="3.81579" transform="rotate(-90 509.185 174.455)" fill="#C7D7E4" stroke="#5B667C" stroke-width="1.09023"/>
<path opacity="0.3" d="M286.094 100.375H291.094L297.812 116.812H298.094L304.812 100.375H309.812V123H305.906V107.438H305.688L299.406 122.938H296.5L290.219 107.375H290.031V123H286.094V100.375ZM322.969 100.375V123H318.875V104.344H318.75L313.469 107.719V104L319.062 100.375H322.969Z" fill="#183570"/>
</svg>
