<svg width="16" height="16" viewBox="0 0 16 16" fill="none" xmlns="http://www.w3.org/2000/svg">
<circle cx="8" cy="8" r="8" fill="#EE2B35"/>
<path d="M14.3508 4.33336C16.3759 7.84084 15.1741 12.3258 11.6666 14.3509C8.15915 16.3759 3.67415 15.1742 1.64911 11.6667C-0.375934 8.15921 0.825817 3.67422 4.3333 1.64917C7.84078 -0.375873 12.3258 0.825878 14.3508 4.33336Z" fill="url(#paint0_linear_55_3610)" style="mix-blend-mode:overlay"/>
<path d="M10.6907 2.72828C11.6112 4.32258 10.4251 6.73063 8.0415 8.10681C5.6579 9.48298 2.97942 9.30614 2.05895 7.71184C1.13847 6.11753 2.32457 3.70948 4.70817 2.3333C7.09177 0.957132 9.77025 1.13397 10.6907 2.72828Z" fill="url(#paint1_linear_55_3610)" fill-opacity="0.4"/>
<defs>
<linearGradient id="paint0_linear_55_3610" x1="4.33332" y1="1.64919" x2="11.6666" y2="14.3509" gradientUnits="userSpaceOnUse">
<stop stop-color="white"/>
<stop offset="1" stop-color="white" stop-opacity="0"/>
</linearGradient>
<linearGradient id="paint1_linear_55_3610" x1="2.60888" y1="1.40656" x2="10.1408" y2="9.03356" gradientUnits="userSpaceOnUse">
<stop stop-color="white"/>
<stop offset="1" stop-color="white" stop-opacity="0.2"/>
</linearGradient>
</defs>
</svg>
