<svg width="612" height="225" viewBox="0 0 612 225" fill="none" xmlns="http://www.w3.org/2000/svg">
<rect x="130.281" y="99.7561" width="25.0752" height="25.0752" rx="12.5376" fill="#EDF7FF" stroke="#5B667C" stroke-width="1.09023"/>
<path d="M39.248 16.8994L246.663 16.8994C247.572 16.8994 248.206 16.898 248.69 16.8408C249.162 16.785 249.42 16.6828 249.608 16.5283C249.691 16.4604 249.767 16.3844 249.835 16.3018C249.989 16.1135 250.093 15.8555 250.148 15.3838C250.206 14.8999 250.206 14.2656 250.206 13.3564V4.36133C250.206 3.31834 250.205 2.59092 250.131 2.04199C250.059 1.50867 249.929 1.22557 249.728 1.02441C249.526 0.823299 249.243 0.692788 248.71 0.621094C248.161 0.547336 247.434 0.545899 246.391 0.545898L39.248 0.545898C38.2048 0.545898 37.4767 0.547282 36.9277 0.621094C36.3947 0.692754 36.1123 0.823464 35.9111 1.02441C35.71 1.22557 35.5785 1.50867 35.5068 2.04199C35.4331 2.59091 35.4316 3.31837 35.4316 4.36133V13.083C35.4316 14.1263 35.433 14.8543 35.5068 15.4033C35.5785 15.9366 35.71 16.2188 35.9111 16.4199C36.1123 16.6211 36.3944 16.7525 36.9277 16.8242C37.4767 16.898 38.2048 16.8994 39.248 16.8994Z" fill="#D5DCE5" stroke="#5B667C" stroke-width="1.09023"/>
<path d="M119.925 16.8994L165.986 16.8994C166.896 16.8994 167.53 16.898 168.014 16.8408C168.485 16.7851 168.743 16.6828 168.932 16.5283C169.014 16.4605 169.09 16.3844 169.158 16.3018C169.313 16.1135 169.416 15.8555 169.472 15.3838C169.529 14.8999 169.529 14.2656 169.529 13.3564V4.36133C169.529 3.31841 169.529 2.5909 169.455 2.04199C169.383 1.50867 169.252 1.22557 169.051 1.02441C168.85 0.823395 168.567 0.692793 168.034 0.621094C167.485 0.547283 166.757 0.545898 165.714 0.545898L119.925 0.545898C118.881 0.545898 118.153 0.547282 117.604 0.621094C117.071 0.692754 116.789 0.823465 116.588 1.02441C116.387 1.22557 116.255 1.50867 116.184 2.04199C116.11 2.59091 116.108 3.31837 116.108 4.36133V13.083C116.108 14.1263 116.11 14.8543 116.184 15.4033C116.255 15.9366 116.387 16.2188 116.588 16.4199C116.789 16.6211 117.071 16.7525 117.604 16.8242C118.153 16.898 118.881 16.8994 119.925 16.8994Z" fill="#D5DCE5" stroke="#5B667C" stroke-width="1.09023"/>
<path d="M128.647 35.4331H156.992C158.035 35.4331 158.763 35.4317 159.312 35.3579C159.845 35.2862 160.128 35.1548 160.329 34.9536C160.53 34.7525 160.661 34.47 160.732 33.937C160.806 33.388 160.808 32.66 160.808 31.6167V20.7153C160.808 19.6721 160.806 18.944 160.732 18.395C160.661 17.862 160.53 17.5796 160.329 17.3784C160.128 17.1773 159.845 17.0458 159.312 16.9741C158.763 16.9004 158.035 16.8989 156.992 16.8989L128.647 16.8989C127.603 16.8989 126.875 16.9003 126.326 16.9741C125.793 17.0458 125.511 17.1773 125.31 17.3784C125.108 17.5796 124.977 17.8617 124.905 18.395C124.832 18.944 124.83 19.6721 124.83 20.7153V31.6167C124.83 32.66 124.832 33.388 124.905 33.937C124.977 34.4703 125.108 34.7525 125.31 34.9536C125.511 35.1548 125.793 35.2862 126.326 35.3579C126.875 35.4317 127.603 35.4331 128.647 35.4331Z" fill="#D5DCE5" stroke="#5B667C" stroke-width="1.09023"/>
<path d="M137.914 174.009C137.914 174.081 137.899 174.153 137.872 174.219L131.644 189.155H153.994L147.767 174.219C147.739 174.153 147.725 174.081 147.725 174.009V50.5776C147.725 50.5059 147.739 50.4349 147.767 50.3687L153.994 35.4331H131.644L137.872 50.3687C137.899 50.4349 137.913 50.5059 137.914 50.5776V174.009Z" fill="#D5DCE5" stroke="#5B667C" stroke-width="1.09023" stroke-linejoin="round"/>
<path d="M246.39 207.688L38.975 207.688C38.0657 207.688 37.4316 207.69 36.9477 207.747C36.4759 207.803 36.218 207.905 36.0297 208.06C35.947 208.127 35.871 208.203 35.8032 208.286C35.6486 208.474 35.5455 208.732 35.4897 209.204C35.4325 209.688 35.4321 210.322 35.4321 211.231L35.4321 220.227C35.4321 221.27 35.4335 221.997 35.5073 222.546C35.579 223.079 35.7094 223.362 35.9106 223.563C36.1117 223.765 36.3949 223.895 36.9282 223.967C37.4771 224.041 38.2045 224.042 39.2475 224.042L246.39 224.042C247.433 224.042 248.161 224.041 248.71 223.967C249.243 223.895 249.526 223.764 249.727 223.563C249.928 223.362 250.06 223.079 250.131 222.546C250.205 221.997 250.206 221.27 250.206 220.227L250.206 211.505C250.206 210.462 250.205 209.734 250.131 209.185C250.06 208.651 249.928 208.369 249.727 208.168C249.526 207.967 249.244 207.835 248.71 207.764C248.161 207.69 247.433 207.688 246.39 207.688Z" fill="#D5DCE5" stroke="#5B667C" stroke-width="1.09023"/>
<path d="M165.713 207.688L119.652 207.688C118.743 207.688 118.108 207.69 117.625 207.747C117.153 207.803 116.895 207.905 116.707 208.06C116.624 208.127 116.548 208.203 116.48 208.286C116.325 208.474 116.222 208.732 116.167 209.204C116.109 209.688 116.109 210.322 116.109 211.231L116.109 220.227C116.109 221.269 116.109 221.997 116.183 222.546C116.255 223.079 116.386 223.362 116.587 223.563C116.788 223.765 117.071 223.895 117.604 223.967C118.153 224.041 118.881 224.042 119.924 224.042L165.713 224.042C166.757 224.042 167.485 224.041 168.034 223.967C168.567 223.895 168.849 223.764 169.05 223.563C169.251 223.362 169.383 223.079 169.455 222.546C169.528 221.997 169.53 221.27 169.53 220.227L169.53 211.505C169.53 210.462 169.528 209.734 169.455 209.185C169.383 208.651 169.251 208.369 169.05 208.168C168.849 207.967 168.567 207.835 168.034 207.764C167.485 207.69 166.757 207.688 165.713 207.688Z" fill="#D5DCE5" stroke="#5B667C" stroke-width="1.09023"/>
<path d="M156.992 189.154L128.646 189.154C127.603 189.154 126.875 189.156 126.327 189.229C125.793 189.301 125.51 189.433 125.309 189.634C125.108 189.835 124.977 190.117 124.906 190.65C124.832 191.199 124.83 191.927 124.83 192.971L124.83 203.872C124.83 204.915 124.832 205.643 124.906 206.192C124.977 206.725 125.108 207.008 125.309 207.209C125.51 207.41 125.793 207.542 126.327 207.613C126.875 207.687 127.603 207.688 128.646 207.688L156.992 207.688C158.035 207.688 158.763 207.687 159.312 207.613C159.845 207.542 160.127 207.41 160.328 207.209C160.53 207.008 160.661 206.726 160.733 206.192C160.807 205.643 160.808 204.915 160.808 203.872L160.808 192.971C160.808 191.927 160.807 191.199 160.733 190.65C160.661 190.117 160.53 189.835 160.328 189.634C160.127 189.433 159.845 189.301 159.312 189.229C158.763 189.156 158.035 189.154 156.992 189.154Z" fill="#D5DCE5" stroke="#5B667C" stroke-width="1.09023"/>
<path d="M238.214 43.6089L238.214 190.994C238.214 192.386 239.343 193.515 240.735 193.515C242.985 193.515 244.01 193.511 244.842 193.303C247.378 192.668 249.359 190.687 249.994 188.151C250.202 187.319 250.206 186.294 250.206 184.043L250.206 43.6089C250.206 40.2974 247.521 37.6128 244.21 37.6128C240.898 37.613 238.214 40.2975 238.214 43.6089Z" fill="#D5DCE5" stroke="#5B667C" stroke-width="1.09023"/>
<path d="M270.377 9.26709H210.959C206.744 9.26721 203.327 12.6842 203.327 16.8989V28.3462C203.327 31.9592 203.329 34.6145 203.602 36.6479C203.873 38.6654 204.404 39.9894 205.403 40.9888C206.402 41.9881 207.726 42.5183 209.744 42.7896C211.777 43.0629 214.433 43.064 218.045 43.064H270.377C273.989 43.064 276.644 43.0629 278.677 42.7896C280.695 42.5183 282.019 41.9881 283.018 40.9888C284.018 39.9894 284.549 38.6655 284.82 36.6479C285.093 34.6145 285.094 31.9592 285.094 28.3462V23.9849C285.094 20.3722 285.093 17.7174 284.82 15.6841C284.549 13.6663 284.018 12.3427 283.018 11.3433C282.019 10.3438 280.695 9.81278 278.677 9.5415C276.644 9.26814 273.989 9.26709 270.377 9.26709Z" fill="#D5DCE5" stroke="#5B667C" stroke-width="1.09023"/>
<path d="M272.556 29.9814H203.328V34.8877C203.328 36.9588 203.328 38.4578 203.482 39.6006C203.633 40.7272 203.925 41.4259 204.445 41.9463C204.965 42.4668 205.664 42.7576 206.791 42.9092C207.934 43.0628 209.433 43.0645 211.504 43.0645H272.556C273.599 43.0645 274.327 43.0631 274.876 42.9893C275.41 42.9176 275.692 42.7861 275.893 42.585C276.094 42.3838 276.226 42.1016 276.297 41.5684C276.371 41.0195 276.372 40.292 276.372 39.249V33.7979C276.372 32.7546 276.371 32.0265 276.297 31.4775C276.226 30.9442 276.094 30.6621 275.893 30.4609C275.692 30.2598 275.41 30.1283 274.876 30.0566C274.327 29.9828 273.599 29.9814 272.556 29.9814Z" fill="#C8D7E4" stroke="#5B667C" stroke-width="1.09023"/>
<path d="M272.556 16.8989H207.143C206.1 16.8989 205.372 16.9003 204.823 16.9741C204.29 17.0458 204.007 17.1773 203.806 17.3784C203.605 17.5796 203.473 17.8619 203.402 18.395C203.328 18.944 203.328 19.6721 203.328 20.7153V29.9819H272.556C273.599 29.9819 274.327 29.9805 274.876 29.9067C275.41 29.835 275.692 29.7036 275.893 29.5024C276.094 29.3013 276.226 29.0191 276.297 28.4858C276.371 27.9369 276.372 27.2095 276.372 26.1665V20.7153C276.372 19.6721 276.371 18.944 276.297 18.395C276.226 17.8617 276.094 17.5796 275.893 17.3784C275.692 17.1773 275.41 17.0458 274.876 16.9741C274.327 16.9003 273.599 16.8989 272.556 16.8989Z" fill="#EDF7FF" stroke="#5B667C" stroke-width="1.09023"/>
<path d="M212.594 16.8989H207.143C206.1 16.8989 205.372 16.9003 204.823 16.9741C204.29 17.0458 204.008 17.1773 203.807 17.3784C203.605 17.5796 203.474 17.8617 203.402 18.395C203.328 18.944 203.327 19.6721 203.327 20.7153V29.9819H212.594C213.637 29.9819 214.365 29.9805 214.914 29.9067C215.447 29.835 215.729 29.7036 215.931 29.5024C216.132 29.3013 216.263 29.0191 216.335 28.4858C216.409 27.9369 216.41 27.2095 216.41 26.1665V20.7153C216.41 19.6721 216.409 18.944 216.335 18.395C216.263 17.8617 216.132 17.5796 215.931 17.3784C215.729 17.1773 215.447 17.0458 214.914 16.9741C214.365 16.9003 213.637 16.8989 212.594 16.8989Z" fill="#EDF7FF" stroke="#5B667C" stroke-width="1.09023"/>
<path d="M270.377 215.32H210.959C206.744 215.32 203.327 211.903 203.327 207.688V196.241C203.327 192.628 203.329 189.973 203.602 187.939C203.873 185.922 204.404 184.598 205.403 183.599C206.402 182.599 207.726 182.069 209.744 181.798C211.777 181.524 214.433 181.523 218.045 181.523H270.377C273.989 181.523 276.644 181.524 278.677 181.798C280.695 182.069 282.019 182.599 283.018 183.599C284.018 184.598 284.549 185.922 284.82 187.939C285.093 189.973 285.094 192.628 285.094 196.241V200.603C285.094 204.215 285.093 206.87 284.82 208.903C284.549 210.921 284.018 212.245 283.018 213.244C282.019 214.244 280.695 214.775 278.677 215.046C276.644 215.319 273.989 215.32 270.377 215.32Z" fill="#D5DCE5" stroke="#5B667C" stroke-width="1.09023"/>
<path d="M272.556 194.606H203.328V189.7C203.328 187.629 203.328 186.13 203.482 184.987C203.633 183.86 203.925 183.161 204.445 182.641C204.965 182.121 205.664 181.83 206.791 181.678C207.934 181.525 209.433 181.523 211.504 181.523H272.556C273.599 181.523 274.327 181.524 274.876 181.598C275.41 181.67 275.692 181.801 275.893 182.002C276.094 182.204 276.226 182.486 276.297 183.019C276.371 183.568 276.372 184.295 276.372 185.338V190.79C276.372 191.833 276.371 192.561 276.297 193.11C276.226 193.643 276.094 193.925 275.893 194.126C275.692 194.328 275.41 194.459 274.876 194.531C274.327 194.605 273.599 194.606 272.556 194.606Z" fill="#C8D7E4" stroke="#5B667C" stroke-width="1.09023"/>
<path d="M272.556 207.688H207.143C206.1 207.688 205.372 207.687 204.823 207.613C204.29 207.542 204.007 207.41 203.806 207.209C203.605 207.008 203.473 206.726 203.402 206.192C203.328 205.643 203.328 204.915 203.328 203.872V194.605H272.556C273.599 194.605 274.327 194.607 274.876 194.681C275.41 194.752 275.692 194.884 275.893 195.085C276.094 195.286 276.226 195.568 276.297 196.102C276.371 196.65 276.372 197.378 276.372 198.421V203.872C276.372 204.915 276.371 205.643 276.297 206.192C276.226 206.726 276.094 207.008 275.893 207.209C275.692 207.41 275.41 207.542 274.876 207.613C274.327 207.687 273.599 207.688 272.556 207.688Z" fill="#EDF7FF" stroke="#5B667C" stroke-width="1.09023"/>
<path d="M212.594 207.688H207.143C206.1 207.688 205.372 207.687 204.823 207.613C204.29 207.542 204.008 207.41 203.807 207.209C203.605 207.008 203.474 206.726 203.402 206.192C203.328 205.643 203.327 204.915 203.327 203.872V194.605H212.594C213.637 194.605 214.365 194.607 214.914 194.681C215.447 194.752 215.729 194.884 215.931 195.085C216.132 195.286 216.263 195.568 216.335 196.102C216.409 196.65 216.41 197.378 216.41 198.421V203.872C216.41 204.915 216.409 205.643 216.335 206.192C216.263 206.726 216.132 207.008 215.931 207.209C215.729 207.41 215.447 207.542 214.914 207.613C214.365 207.687 213.637 207.688 212.594 207.688Z" fill="#EDF7FF" stroke="#5B667C" stroke-width="1.09023"/>
<path d="M47.425 43.6089L47.425 190.994C47.425 192.386 46.2959 193.515 44.9035 193.515C42.6535 193.515 41.6284 193.511 40.7971 193.303C38.2607 192.668 36.2801 190.687 35.6447 188.151C35.4365 187.319 35.4328 186.294 35.4328 184.043L35.4328 43.6089C35.433 40.2974 38.1174 37.6128 41.4289 37.6128C44.7403 37.613 47.4248 40.2975 47.425 43.6089Z" fill="#D5DCE5" stroke="#5B667C" stroke-width="1.09023"/>
<path d="M15.2627 9.26709H74.6807C78.8954 9.26721 82.3125 12.6842 82.3125 16.8989V28.3462C82.3125 31.9592 82.3105 34.6145 82.0371 36.6479C81.7658 38.6654 81.2357 39.9894 80.2363 40.9888C79.2369 41.9881 77.913 42.5183 75.8955 42.7896C73.8621 43.0629 71.2067 43.064 67.5938 43.064H15.2627C11.65 43.064 8.99525 43.0629 6.96191 42.7896C4.94434 42.5183 3.62052 41.9881 2.62109 40.9888C1.6217 39.9894 1.09063 38.6655 0.819336 36.6479C0.54595 34.6145 0.544922 31.9592 0.544922 28.3462V23.9849C0.544922 20.3722 0.545972 17.7174 0.819336 15.6841C1.09061 13.6663 1.62164 12.3427 2.62109 11.3433C3.62055 10.3438 4.94418 9.81278 6.96191 9.5415C8.99524 9.26814 11.65 9.26709 15.2627 9.26709Z" fill="#D5DCE5" stroke="#5B667C" stroke-width="1.09023"/>
<path d="M13.0831 29.9814H82.3116V34.8877C82.3116 36.9588 82.311 38.4578 82.1573 39.6006C82.0058 40.7272 81.7147 41.4259 81.1945 41.9463C80.674 42.4668 79.9748 42.7576 78.8478 42.9092C77.705 43.0628 76.206 43.0645 74.1349 43.0645H13.0831C12.0398 43.0645 11.3118 43.0631 10.7628 42.9893C10.2295 42.9176 9.94737 42.7861 9.74622 42.585C9.54508 42.3838 9.41362 42.1016 9.34192 41.5684C9.26813 41.0195 9.26672 40.292 9.26672 39.249V33.7979C9.26672 32.7546 9.26811 32.0265 9.34192 31.4775C9.41362 30.9442 9.54506 30.6621 9.74622 30.4609C9.94737 30.2598 10.2295 30.1283 10.7628 30.0566C11.3118 29.9828 12.0399 29.9814 13.0831 29.9814Z" fill="#C8D7E4" stroke="#5B667C" stroke-width="1.09023"/>
<path d="M13.0831 16.8984H78.4962C79.5395 16.8984 80.2675 16.8998 80.8165 16.9736C81.3496 17.0453 81.632 17.1768 81.8331 17.3779C82.0342 17.5791 82.1657 17.8614 82.2374 18.3945C82.3112 18.9435 82.3116 19.6716 82.3116 20.7148V29.9814H13.0831C12.0398 29.9814 11.3118 29.9801 10.7628 29.9062C10.2295 29.8345 9.94737 29.7031 9.74622 29.502C9.54508 29.3008 9.41362 29.0186 9.34192 28.4854C9.26813 27.9364 9.26672 27.209 9.26672 26.166V20.7148C9.26672 19.6716 9.26811 18.9435 9.34192 18.3945C9.41362 17.8612 9.54506 17.5791 9.74622 17.3779C9.94737 17.1768 10.2295 17.0453 10.7628 16.9736C11.3118 16.8998 12.0399 16.8984 13.0831 16.8984Z" fill="#EDF7FF" stroke="#5B667C" stroke-width="1.09023"/>
<path d="M73.0455 16.8984H78.4967C79.5397 16.8984 80.2671 16.8998 80.816 16.9736C81.3493 17.0453 81.6315 17.1768 81.8326 17.3779C82.0338 17.5791 82.1652 17.8612 82.2369 18.3945C82.3107 18.9435 82.3121 19.6716 82.3121 20.7148V29.9814H73.0455C72.0023 29.9814 71.2742 29.9801 70.7252 29.9062C70.1919 29.8345 69.9098 29.7031 69.7086 29.502C69.5075 29.3008 69.376 29.0186 69.3043 28.4854C69.2305 27.9364 69.2291 27.209 69.2291 26.166V20.7148C69.2291 19.6716 69.2305 18.9435 69.3043 18.3945C69.376 17.8612 69.5075 17.5791 69.7086 17.3779C69.9098 17.1768 70.1919 17.0453 70.7252 16.9736C71.2742 16.8998 72.0023 16.8984 73.0455 16.8984Z" fill="#EDF7FF" stroke="#5B667C" stroke-width="1.09023"/>
<path d="M15.2627 215.32H74.6807C78.8954 215.32 82.3125 211.903 82.3125 207.688V196.241C82.3125 192.628 82.3105 189.973 82.0371 187.939C81.7658 185.922 81.2357 184.598 80.2363 183.599C79.2369 182.599 77.913 182.069 75.8955 181.798C73.8621 181.524 71.2067 181.523 67.5938 181.523H15.2627C11.65 181.523 8.99525 181.524 6.96191 181.798C4.94434 182.069 3.62052 182.599 2.62109 183.599C1.6217 184.598 1.09063 185.922 0.819336 187.939C0.54595 189.973 0.544922 192.628 0.544922 196.241V200.603C0.544922 204.215 0.545972 206.87 0.819336 208.903C1.09061 210.921 1.62164 212.245 2.62109 213.244C3.62055 214.244 4.94418 214.775 6.96191 215.046C8.99524 215.319 11.65 215.32 15.2627 215.32Z" fill="#D5DCE5" stroke="#5B667C" stroke-width="1.09023"/>
<path d="M13.0831 194.606H82.3116V189.7C82.3116 187.629 82.311 186.13 82.1573 184.987C82.0058 183.86 81.7147 183.161 81.1945 182.641C80.674 182.121 79.9748 181.83 78.8478 181.678C77.705 181.525 76.206 181.523 74.1349 181.523H13.0831C12.0398 181.523 11.3118 181.524 10.7628 181.598C10.2295 181.67 9.94737 181.801 9.74622 182.002C9.54508 182.204 9.41362 182.486 9.34192 183.019C9.26813 183.568 9.26672 184.295 9.26672 185.338V190.79C9.26672 191.833 9.26811 192.561 9.34192 193.11C9.41362 193.643 9.54506 193.925 9.74622 194.126C9.94737 194.328 10.2295 194.459 10.7628 194.531C11.3118 194.605 12.0399 194.606 13.0831 194.606Z" fill="#C8D7E4" stroke="#5B667C" stroke-width="1.09023"/>
<path d="M13.0831 207.689H78.4962C79.5395 207.689 80.2675 207.688 80.8165 207.614C81.3496 207.542 81.632 207.411 81.8331 207.209C82.0342 207.008 82.1657 206.726 82.2374 206.193C82.3112 205.644 82.3116 204.916 82.3116 203.873V194.606H13.0831C12.0398 194.606 11.3118 194.607 10.7628 194.681C10.2295 194.753 9.94737 194.884 9.74622 195.085C9.54508 195.287 9.41362 195.569 9.34192 196.102C9.26813 196.651 9.26672 197.378 9.26672 198.421V203.873C9.26672 204.916 9.26811 205.644 9.34192 206.193C9.41362 206.726 9.54506 207.008 9.74622 207.209C9.94737 207.411 10.2295 207.542 10.7628 207.614C11.3118 207.688 12.0399 207.689 13.0831 207.689Z" fill="#EDF7FF" stroke="#5B667C" stroke-width="1.09023"/>
<path d="M73.0455 207.689H78.4967C79.5397 207.689 80.2671 207.688 80.816 207.614C81.3493 207.542 81.6315 207.411 81.8326 207.209C82.0338 207.008 82.1652 206.726 82.2369 206.193C82.3107 205.644 82.3121 204.916 82.3121 203.873V194.606H73.0455C72.0023 194.606 71.2742 194.607 70.7252 194.681C70.1919 194.753 69.9098 194.884 69.7086 195.085C69.5075 195.287 69.376 195.569 69.3043 196.102C69.2305 196.651 69.2291 197.378 69.2291 198.421V203.873C69.2291 204.916 69.2305 205.644 69.3043 206.193C69.376 206.726 69.5075 207.008 69.7086 207.209C69.9098 207.411 70.1919 207.542 70.7252 207.614C71.2742 207.688 72.0023 207.689 73.0455 207.689Z" fill="#EDF7FF" stroke="#5B667C" stroke-width="1.09023"/>
<rect x="455.922" y="99.7561" width="25.0752" height="25.0752" rx="12.5376" fill="#EDF7FF" stroke="#5B667C" stroke-width="1.09023"/>
<path d="M364.889 16.8989L572.304 16.8989C573.213 16.8989 573.847 16.8975 574.331 16.8403C574.803 16.7846 575.061 16.6823 575.249 16.5278C575.332 16.4599 575.408 16.3839 575.476 16.3013C575.63 16.113 575.733 15.855 575.789 15.3833C575.846 14.8994 575.847 14.2651 575.847 13.356V4.36084C575.847 3.31785 575.845 2.59043 575.772 2.0415C575.7 1.50818 575.569 1.22508 575.368 1.02393C575.167 0.82281 574.884 0.6923 574.351 0.620605C573.802 0.546847 573.074 0.54541 572.031 0.54541L364.889 0.54541C363.845 0.54541 363.117 0.546794 362.568 0.620605C362.035 0.692266 361.753 0.822976 361.552 1.02393C361.351 1.22508 361.219 1.50818 361.148 2.0415C361.074 2.59042 361.072 3.31788 361.072 4.36084V13.0825C361.072 14.1258 361.074 14.8538 361.148 15.4028C361.219 15.9362 361.351 16.2183 361.552 16.4194C361.753 16.6206 362.035 16.752 362.568 16.8237C363.117 16.8975 363.845 16.8989 364.889 16.8989Z" fill="#D5DCE5" stroke="#5B667C" stroke-width="1.09023"/>
<path d="M445.565 16.8989L491.627 16.8989C492.536 16.8989 493.17 16.8975 493.654 16.8403C494.126 16.7846 494.384 16.6823 494.572 16.5278C494.655 16.46 494.731 16.3839 494.799 16.3013C494.953 16.113 495.057 15.855 495.112 15.3833C495.17 14.8994 495.17 14.2651 495.17 13.356V4.36084C495.17 3.31792 495.169 2.59042 495.096 2.0415C495.024 1.50818 494.893 1.22508 494.691 1.02393C494.49 0.822907 494.208 0.692304 493.675 0.620605C493.126 0.546794 492.398 0.54541 491.354 0.54541L445.565 0.54541C444.522 0.54541 443.794 0.546794 443.245 0.620605C442.712 0.692266 442.43 0.822977 442.229 1.02393C442.027 1.22508 441.896 1.50818 441.824 2.0415C441.75 2.59042 441.749 3.31788 441.749 4.36084V13.0825C441.749 14.1258 441.75 14.8538 441.824 15.4028C441.896 15.9362 442.027 16.2183 442.229 16.4194C442.43 16.6206 442.712 16.752 443.245 16.8237C443.794 16.8975 444.522 16.8989 445.565 16.8989Z" fill="#D5DCE5" stroke="#5B667C" stroke-width="1.09023"/>
<path d="M454.287 35.4331H482.633C483.676 35.4331 484.403 35.4317 484.952 35.3579C485.486 35.2862 485.769 35.1548 485.97 34.9536C486.171 34.7525 486.302 34.47 486.373 33.937C486.447 33.388 486.448 32.66 486.448 31.6167V20.7153C486.448 19.6721 486.447 18.944 486.373 18.395C486.302 17.862 486.171 17.5796 485.97 17.3784C485.769 17.1773 485.486 17.0458 484.952 16.9741C484.403 16.9004 483.676 16.8989 482.633 16.8989L454.287 16.8989C453.244 16.8989 452.516 16.9003 451.967 16.9741C451.434 17.0458 451.151 17.1773 450.95 17.3784C450.749 17.5796 450.618 17.8617 450.546 18.395C450.472 18.944 450.471 19.6721 450.471 20.7153V31.6167C450.471 32.66 450.472 33.388 450.546 33.937C450.618 34.4703 450.749 34.7525 450.95 34.9536C451.151 35.1548 451.434 35.2862 451.967 35.3579C452.516 35.4317 453.244 35.4331 454.287 35.4331Z" fill="#D5DCE5" stroke="#5B667C" stroke-width="1.09023"/>
<path d="M463.554 174.009C463.554 174.081 463.54 174.153 463.512 174.219L457.285 189.155H479.634L473.408 174.219C473.38 174.153 473.366 174.081 473.366 174.009V50.5776C473.366 50.5059 473.38 50.4349 473.408 50.3687L479.634 35.4331H457.285L463.512 50.3687C463.54 50.4349 463.554 50.5059 463.554 50.5776V174.009Z" fill="#D5DCE5" stroke="#5B667C" stroke-width="1.09023" stroke-linejoin="round"/>
<path d="M572.031 207.688L364.616 207.688C363.706 207.688 363.072 207.69 362.588 207.747C362.117 207.803 361.859 207.905 361.67 208.06C361.588 208.127 361.512 208.203 361.444 208.286C361.289 208.474 361.186 208.732 361.13 209.204C361.073 209.688 361.073 210.322 361.073 211.231L361.073 220.227C361.073 221.27 361.074 221.997 361.148 222.546C361.22 223.079 361.35 223.362 361.551 223.563C361.752 223.765 362.036 223.895 362.569 223.967C363.118 224.041 363.845 224.042 364.888 224.042L572.031 224.042C573.074 224.042 573.802 224.041 574.351 223.967C574.884 223.895 575.167 223.764 575.368 223.563C575.569 223.362 575.7 223.079 575.772 222.546C575.846 221.997 575.847 221.27 575.847 220.227L575.847 211.505C575.847 210.462 575.846 209.734 575.772 209.185C575.7 208.651 575.569 208.369 575.368 208.168C575.167 207.967 574.884 207.835 574.351 207.764C573.802 207.69 573.074 207.688 572.031 207.688Z" fill="#D5DCE5" stroke="#5B667C" stroke-width="1.09023"/>
<path d="M491.354 207.688L445.293 207.688C444.383 207.688 443.749 207.69 443.265 207.747C442.793 207.803 442.536 207.905 442.347 208.06C442.265 208.127 442.189 208.203 442.121 208.286C441.966 208.474 441.863 208.732 441.807 209.204C441.75 209.688 441.75 210.322 441.75 211.231L441.75 220.227C441.75 221.269 441.75 221.997 441.824 222.546C441.895 223.079 442.027 223.362 442.228 223.563C442.429 223.765 442.712 223.895 443.245 223.967C443.794 224.041 444.522 224.042 445.565 224.042L491.354 224.042C492.397 224.042 493.125 224.041 493.674 223.967C494.207 223.895 494.49 223.764 494.691 223.563C494.892 223.362 495.024 223.079 495.095 222.546C495.169 221.997 495.17 221.27 495.17 220.227L495.17 211.505C495.17 210.462 495.169 209.734 495.095 209.185C495.024 208.651 494.892 208.369 494.691 208.168C494.49 207.967 494.208 207.835 493.674 207.764C493.125 207.69 492.397 207.688 491.354 207.688Z" fill="#D5DCE5" stroke="#5B667C" stroke-width="1.09023"/>
<path d="M482.632 189.154L454.287 189.154C453.244 189.154 452.516 189.156 451.967 189.229C451.434 189.301 451.151 189.433 450.95 189.634C450.749 189.835 450.618 190.117 450.546 190.65C450.473 191.199 450.471 191.927 450.471 192.971L450.471 203.872C450.471 204.915 450.473 205.643 450.546 206.192C450.618 206.725 450.749 207.008 450.95 207.209C451.151 207.41 451.434 207.542 451.967 207.613C452.516 207.687 453.244 207.688 454.287 207.688L482.632 207.688C483.676 207.688 484.404 207.687 484.953 207.613C485.486 207.542 485.768 207.41 485.969 207.209C486.17 207.008 486.302 206.726 486.373 206.192C486.447 205.643 486.449 204.915 486.449 203.872L486.449 192.971C486.449 191.927 486.447 191.199 486.373 190.65C486.302 190.117 486.17 189.835 485.969 189.634C485.768 189.433 485.486 189.301 484.953 189.229C484.404 189.156 483.676 189.154 482.632 189.154Z" fill="#D5DCE5" stroke="#5B667C" stroke-width="1.09023"/>
<path d="M563.854 43.6089L563.854 190.994C563.854 192.386 564.984 193.515 566.376 193.515C568.626 193.515 569.651 193.511 570.482 193.303C573.019 192.668 574.999 190.687 575.635 188.151C575.843 187.319 575.847 186.294 575.847 184.043L575.847 43.6089C575.847 40.2974 573.162 37.6128 569.851 37.6128C566.539 37.613 563.855 40.2975 563.854 43.6089Z" fill="#D5DCE5" stroke="#5B667C" stroke-width="1.09023"/>
<path d="M596.017 9.26709H536.599C532.384 9.26721 528.967 12.6842 528.967 16.8989V28.3462C528.967 31.9592 528.969 34.6145 529.242 36.6479C529.514 38.6654 530.044 39.9894 531.043 40.9888C532.043 41.9881 533.366 42.5183 535.384 42.7896C537.417 43.0629 540.073 43.064 543.686 43.064H596.017C599.63 43.064 602.284 43.0629 604.318 42.7896C606.335 42.5183 607.659 41.9881 608.658 40.9888C609.658 39.9894 610.189 38.6655 610.46 36.6479C610.734 34.6145 610.735 31.9592 610.735 28.3462V23.9849C610.735 20.3722 610.734 17.7174 610.46 15.6841C610.189 13.6663 609.658 12.3427 608.658 11.3433C607.659 10.3438 606.335 9.81278 604.318 9.5415C602.284 9.26814 599.629 9.26709 596.017 9.26709Z" fill="#D5DCE5" stroke="#5B667C" stroke-width="1.09023"/>
<path d="M598.196 29.9814H528.968V34.8877C528.968 36.9588 528.968 38.4578 529.122 39.6006C529.274 40.7272 529.565 41.4259 530.085 41.9463C530.605 42.4668 531.305 42.7576 532.432 42.9092C533.574 43.0628 535.073 43.0645 537.145 43.0645H598.196C599.24 43.0645 599.968 43.0631 600.517 42.9893C601.05 42.9176 601.332 42.7861 601.533 42.585C601.734 42.3838 601.866 42.1016 601.938 41.5684C602.011 41.0195 602.013 40.292 602.013 39.249V33.7979C602.013 32.7546 602.011 32.0265 601.938 31.4775C601.866 30.9442 601.734 30.6621 601.533 30.4609C601.332 30.2598 601.05 30.1283 600.517 30.0566C599.968 29.9828 599.24 29.9814 598.196 29.9814Z" fill="#C8D7E4" stroke="#5B667C" stroke-width="1.09023"/>
<path d="M598.196 16.8984H532.783C531.74 16.8984 531.012 16.8998 530.463 16.9736C529.93 17.0453 529.647 17.1768 529.446 17.3779C529.245 17.5791 529.114 17.8614 529.042 18.3945C528.968 18.9435 528.968 19.6716 528.968 20.7148V29.9814H598.196C599.24 29.9814 599.968 29.9801 600.517 29.9062C601.05 29.8345 601.332 29.7031 601.533 29.502C601.734 29.3008 601.866 29.0186 601.938 28.4854C602.011 27.9364 602.013 27.209 602.013 26.166V20.7148C602.013 19.6716 602.011 18.9435 601.938 18.3945C601.866 17.8612 601.734 17.5791 601.533 17.3779C601.332 17.1768 601.05 17.0453 600.517 16.9736C599.968 16.8998 599.24 16.8984 598.196 16.8984Z" fill="#EDF7FF" stroke="#5B667C" stroke-width="1.09023"/>
<path d="M538.234 16.8984H532.783C531.74 16.8984 531.012 16.8998 530.463 16.9736C529.93 17.0453 529.648 17.1768 529.447 17.3779C529.246 17.5791 529.114 17.8612 529.043 18.3945C528.969 18.9435 528.967 19.6716 528.967 20.7148V29.9814H538.234C539.277 29.9814 540.005 29.9801 540.554 29.9062C541.088 29.8345 541.37 29.7031 541.571 29.502C541.772 29.3008 541.903 29.0186 541.975 28.4854C542.049 27.9364 542.05 27.209 542.05 26.166V20.7148C542.05 19.6716 542.049 18.9435 541.975 18.3945C541.903 17.8612 541.772 17.5791 541.571 17.3779C541.37 17.1768 541.088 17.0453 540.554 16.9736C540.005 16.8998 539.277 16.8984 538.234 16.8984Z" fill="#EDF7FF" stroke="#5B667C" stroke-width="1.09023"/>
<path d="M596.017 215.32H536.599C532.384 215.32 528.967 211.903 528.967 207.688V196.241C528.967 192.628 528.969 189.973 529.242 187.939C529.514 185.922 530.044 184.598 531.043 183.599C532.043 182.599 533.366 182.069 535.384 181.798C537.417 181.524 540.073 181.523 543.686 181.523H596.017C599.63 181.523 602.284 181.524 604.318 181.798C606.335 182.069 607.659 182.599 608.658 183.599C609.658 184.598 610.189 185.922 610.46 187.939C610.734 189.973 610.735 192.628 610.735 196.241V200.603C610.735 204.215 610.734 206.87 610.46 208.903C610.189 210.921 609.658 212.245 608.658 213.244C607.659 214.244 606.335 214.775 604.318 215.046C602.284 215.319 599.629 215.32 596.017 215.32Z" fill="#D5DCE5" stroke="#5B667C" stroke-width="1.09023"/>
<path d="M598.196 194.606H528.968V189.7C528.968 187.629 528.968 186.13 529.122 184.987C529.274 183.86 529.565 183.161 530.085 182.641C530.605 182.121 531.305 181.83 532.432 181.678C533.574 181.525 535.073 181.523 537.145 181.523H598.196C599.24 181.523 599.968 181.524 600.517 181.598C601.05 181.67 601.332 181.801 601.533 182.002C601.734 182.204 601.866 182.486 601.938 183.019C602.011 183.568 602.013 184.295 602.013 185.338V190.79C602.013 191.833 602.011 192.561 601.938 193.11C601.866 193.643 601.734 193.925 601.533 194.126C601.332 194.328 601.05 194.459 600.517 194.531C599.968 194.605 599.24 194.606 598.196 194.606Z" fill="#C8D7E4" stroke="#5B667C" stroke-width="1.09023"/>
<path d="M598.196 207.689H532.783C531.74 207.689 531.012 207.688 530.463 207.614C529.93 207.542 529.647 207.411 529.446 207.209C529.245 207.008 529.114 206.726 529.042 206.193C528.968 205.644 528.968 204.916 528.968 203.873V194.606H598.196C599.24 194.606 599.968 194.607 600.517 194.681C601.05 194.753 601.332 194.884 601.533 195.085C601.734 195.287 601.866 195.569 601.938 196.102C602.011 196.651 602.013 197.378 602.013 198.421V203.873C602.013 204.916 602.011 205.644 601.938 206.193C601.866 206.726 601.734 207.008 601.533 207.209C601.332 207.411 601.05 207.542 600.517 207.614C599.968 207.688 599.24 207.689 598.196 207.689Z" fill="#EDF7FF" stroke="#5B667C" stroke-width="1.09023"/>
<path d="M538.234 207.689H532.783C531.74 207.689 531.012 207.688 530.463 207.614C529.93 207.542 529.648 207.411 529.447 207.209C529.246 207.008 529.114 206.726 529.043 206.193C528.969 205.644 528.967 204.916 528.967 203.873V194.606H538.234C539.277 194.606 540.005 194.607 540.554 194.681C541.088 194.753 541.37 194.884 541.571 195.085C541.772 195.287 541.903 195.569 541.975 196.102C542.049 196.651 542.05 197.378 542.05 198.421V203.873C542.05 204.916 542.049 205.644 541.975 206.193C541.903 206.726 541.772 207.008 541.571 207.209C541.37 207.411 541.088 207.542 540.554 207.614C540.005 207.688 539.277 207.689 538.234 207.689Z" fill="#EDF7FF" stroke="#5B667C" stroke-width="1.09023"/>
<path d="M373.065 43.6094L373.065 190.994C373.065 192.387 371.936 193.516 370.543 193.516C368.293 193.516 367.268 193.512 366.437 193.304C363.9 192.668 361.92 190.688 361.284 188.151C361.076 187.32 361.073 186.294 361.073 184.044L361.073 43.6094C361.073 40.2979 363.757 37.6133 367.069 37.6133C370.38 37.6135 373.065 40.298 373.065 43.6094Z" fill="#D5DCE5" stroke="#5B667C" stroke-width="1.09023"/>
<path d="M340.902 9.26709H400.32C404.535 9.26721 407.952 12.6842 407.952 16.8989V28.3462C407.952 31.9592 407.95 34.6145 407.676 36.6479C407.405 38.6654 406.875 39.9894 405.876 40.9888C404.876 41.9881 403.552 42.5183 401.535 42.7896C399.501 43.0629 396.846 43.064 393.233 43.064H340.902C337.289 43.064 334.635 43.0629 332.601 42.7896C330.584 42.5183 329.26 41.9881 328.26 40.9888C327.261 39.9894 326.73 38.6655 326.459 36.6479C326.185 34.6145 326.184 31.9592 326.184 28.3462V23.9849C326.184 20.3722 326.185 17.7174 326.459 15.6841C326.73 13.6663 327.261 12.3427 328.26 11.3433C329.26 10.3438 330.583 9.81278 332.601 9.5415C334.635 9.26814 337.289 9.26709 340.902 9.26709Z" fill="#D5DCE5" stroke="#5B667C" stroke-width="1.09023"/>
<path d="M338.722 29.9814H407.951V34.8877C407.951 36.9588 407.95 38.4578 407.797 39.6006C407.645 40.7272 407.354 41.4259 406.834 41.9463C406.313 42.4668 405.614 42.7576 404.487 42.9092C403.344 43.0628 401.845 43.0645 399.774 43.0645H338.722C337.679 43.0645 336.951 43.0631 336.402 42.9893C335.869 42.9176 335.587 42.7861 335.385 42.585C335.184 42.3838 335.053 42.1016 334.981 41.5684C334.907 41.0195 334.906 40.292 334.906 39.249V33.7979C334.906 32.7546 334.907 32.0265 334.981 31.4775C335.053 30.9442 335.184 30.6621 335.385 30.4609C335.587 30.2598 335.869 30.1283 336.402 30.0566C336.951 29.9828 337.679 29.9814 338.722 29.9814Z" fill="#C8D7E4" stroke="#5B667C" stroke-width="1.09023"/>
<path d="M338.722 16.8989H404.135C405.179 16.8989 405.907 16.9003 406.456 16.9741C406.989 17.0458 407.271 17.1773 407.472 17.3784C407.673 17.5796 407.805 17.8619 407.877 18.395C407.951 18.944 407.951 19.6721 407.951 20.7153V29.9819H338.722C337.679 29.9819 336.951 29.9805 336.402 29.9067C335.869 29.835 335.587 29.7036 335.385 29.5024C335.184 29.3013 335.053 29.0191 334.981 28.4858C334.907 27.9369 334.906 27.2095 334.906 26.1665V20.7153C334.906 19.6721 334.907 18.944 334.981 18.395C335.053 17.8617 335.184 17.5796 335.385 17.3784C335.587 17.1773 335.869 17.0458 336.402 16.9741C336.951 16.9003 337.679 16.8989 338.722 16.8989Z" fill="#EDF7FF" stroke="#5B667C" stroke-width="1.09023"/>
<path d="M398.685 16.8989H404.136C405.179 16.8989 405.906 16.9003 406.455 16.9741C406.989 17.0458 407.271 17.1773 407.472 17.3784C407.673 17.5796 407.805 17.8617 407.876 18.395C407.95 18.944 407.951 19.6721 407.951 20.7153V29.9819H398.685C397.642 29.9819 396.914 29.9805 396.365 29.9067C395.831 29.835 395.549 29.7036 395.348 29.5024C395.147 29.3013 395.015 29.0191 394.944 28.4858C394.87 27.9369 394.868 27.2095 394.868 26.1665V20.7153C394.868 19.6721 394.87 18.944 394.944 18.395C395.015 17.8617 395.147 17.5796 395.348 17.3784C395.549 17.1773 395.831 17.0458 396.365 16.9741C396.914 16.9003 397.642 16.8989 398.685 16.8989Z" fill="#EDF7FF" stroke="#5B667C" stroke-width="1.09023"/>
<path d="M340.902 215.32H400.32C404.535 215.32 407.952 211.903 407.952 207.688V196.241C407.952 192.628 407.95 189.973 407.676 187.939C407.405 185.922 406.875 184.598 405.876 183.599C404.876 182.599 403.552 182.069 401.535 181.798C399.501 181.524 396.846 181.523 393.233 181.523H340.902C337.289 181.523 334.635 181.524 332.601 181.798C330.584 182.069 329.26 182.599 328.26 183.599C327.261 184.598 326.73 185.922 326.459 187.939C326.185 189.973 326.184 192.628 326.184 196.241V200.603C326.184 204.215 326.185 206.87 326.459 208.903C326.73 210.921 327.261 212.245 328.26 213.244C329.26 214.244 330.583 214.775 332.601 215.046C334.635 215.319 337.289 215.32 340.902 215.32Z" fill="#D5DCE5" stroke="#5B667C" stroke-width="1.09023"/>
<path d="M338.722 194.606H407.951V189.7C407.951 187.629 407.95 186.13 407.797 184.987C407.645 183.86 407.354 183.161 406.834 182.641C406.313 182.121 405.614 181.83 404.487 181.678C403.344 181.525 401.845 181.523 399.774 181.523H338.722C337.679 181.523 336.951 181.524 336.402 181.598C335.869 181.67 335.587 181.801 335.385 182.002C335.184 182.204 335.053 182.486 334.981 183.019C334.907 183.568 334.906 184.295 334.906 185.338V190.79C334.906 191.833 334.907 192.561 334.981 193.11C335.053 193.643 335.184 193.925 335.385 194.126C335.587 194.328 335.869 194.459 336.402 194.531C336.951 194.605 337.679 194.606 338.722 194.606Z" fill="#C8D7E4" stroke="#5B667C" stroke-width="1.09023"/>
<path d="M338.722 207.688H404.135C405.179 207.688 405.907 207.687 406.456 207.613C406.989 207.542 407.271 207.41 407.472 207.209C407.673 207.008 407.805 206.726 407.877 206.192C407.951 205.643 407.951 204.915 407.951 203.872V194.605H338.722C337.679 194.605 336.951 194.607 336.402 194.681C335.869 194.752 335.587 194.884 335.385 195.085C335.184 195.286 335.053 195.568 334.981 196.102C334.907 196.65 334.906 197.378 334.906 198.421V203.872C334.906 204.915 334.907 205.643 334.981 206.192C335.053 206.726 335.184 207.008 335.385 207.209C335.587 207.41 335.869 207.542 336.402 207.613C336.951 207.687 337.679 207.688 338.722 207.688Z" fill="#EDF7FF" stroke="#5B667C" stroke-width="1.09023"/>
<path d="M398.685 207.688H404.136C405.179 207.688 405.906 207.687 406.455 207.613C406.989 207.542 407.271 207.41 407.472 207.209C407.673 207.008 407.805 206.726 407.876 206.192C407.95 205.643 407.951 204.915 407.951 203.872V194.605H398.685C397.642 194.605 396.914 194.607 396.365 194.681C395.831 194.752 395.549 194.884 395.348 195.085C395.147 195.286 395.015 195.568 394.944 196.102C394.87 196.65 394.868 197.378 394.868 198.421V203.872C394.868 204.915 394.87 205.643 394.944 206.192C395.015 206.726 395.147 207.008 395.348 207.209C395.549 207.41 395.831 207.542 396.365 207.613C396.914 207.687 397.642 207.688 398.685 207.688Z" fill="#EDF7FF" stroke="#5B667C" stroke-width="1.09023"/>
<path opacity="0.3" d="M278.094 103.782V100.375H296.125V103.782H289.156V123H285.094V103.782H278.094ZM313.562 108C313.094 105.282 310.906 103.719 308.156 103.719C304.438 103.719 301.844 106.563 301.844 111.688C301.844 116.875 304.469 119.657 308.156 119.657C310.844 119.657 313.031 118.157 313.562 115.5H317.656C317.031 119.844 313.469 123.313 308.094 123.313C302.125 123.313 297.75 118.969 297.75 111.688C297.75 104.375 302.188 100.063 308.094 100.063C313.094 100.063 316.969 102.969 317.656 108H313.562ZM330.125 100.375V123H326.031V104.344H325.906L320.625 107.719V104L326.219 100.375H330.125Z" fill="#183570"/>
</svg>
