<svg width="1898" height="291" viewBox="0 0 1898 291" fill="none" xmlns="http://www.w3.org/2000/svg">
<g filter="url(#filter0_di_2073_655)">
<path d="M973.661 88.0767C973.661 88.0767 923.432 88.0767 923.399 88.0767C921.047 88.0767 919.904 98.9436 919.469 110.366C918.804 127.824 918.823 147.548 919.676 164.824C920.158 174.595 921.476 182.077 923.399 182.077H973.662C974.755 182.077 975.835 179.374 976.539 174.729C977.506 168.354 977.655 158.609 977.832 150.669C978.055 140.674 978.053 130.534 977.846 120.532C977.626 109.889 977.439 97.1542 975.61 91.0665C975.023 89.1168 974.345 88.0767 973.661 88.0767Z" fill="white"/>
<path d="M973.661 88.0767C973.661 88.0767 923.432 88.0767 923.399 88.0767C921.047 88.0767 919.904 98.9436 919.469 110.366C918.804 127.824 918.823 147.548 919.676 164.824C920.158 174.595 921.476 182.077 923.399 182.077H973.662C974.755 182.077 975.835 179.374 976.539 174.729C977.506 168.354 977.655 158.609 977.832 150.669C978.055 140.674 978.053 130.534 977.846 120.532C977.626 109.889 977.439 97.1542 975.61 91.0665C975.023 89.1168 974.345 88.0767 973.661 88.0767Z" fill="url(#paint0_linear_2073_655)"/>
<path d="M973.661 88.0767V88.5767C973.735 88.5767 973.945 88.6421 974.253 89.1138C974.507 89.5041 974.769 90.0856 975.022 90.8647L975.131 91.2104C976.026 94.1916 976.529 98.8433 976.832 104.12C977.134 109.383 977.237 115.217 977.347 120.542C977.553 130.538 977.554 140.671 977.332 150.658C977.154 158.616 977.005 168.319 976.045 174.654C975.695 176.96 975.256 178.755 974.781 179.961C974.543 180.567 974.306 180.997 974.086 181.266C973.861 181.542 973.716 181.577 973.662 181.577H923.399C923.336 181.577 923.225 181.548 923.062 181.384C922.897 181.217 922.715 180.943 922.526 180.542C922.15 179.742 921.8 178.547 921.487 177.014C920.864 173.958 920.415 169.673 920.175 164.799C919.323 147.54 919.304 127.83 919.968 110.385C920.185 104.68 920.579 99.1294 921.209 95.0132C921.525 92.9509 921.896 91.2761 922.322 90.1274C922.537 89.5506 922.753 89.1384 922.962 88.8794C923.171 88.6198 923.317 88.5768 923.398 88.5767H973.66C973.661 88.5767 973.661 88.5767 973.661 88.0767Z" stroke="black" stroke-opacity="0.3"/>
</g>
<g filter="url(#filter1_di_2073_655)">
<path d="M870.681 0.0766602C870.681 0.0766602 79.7825 0.0766602 79.2622 0.0766602C42.2256 0.0766602 24.2276 31.2902 17.3788 64.0993C6.91973 114.244 7.20643 170.9 20.6386 220.52C28.2307 248.586 48.9894 270.077 79.2728 270.077H870.692C887.904 270.077 904.915 262.313 916 248.971C931.216 230.661 933.563 202.67 936.356 179.863C939.86 151.155 939.828 122.029 936.578 93.2997C933.117 62.7287 930.165 26.1504 901.368 8.66441C892.13 3.06417 881.448 0.0766602 870.681 0.0766602Z" fill="white"/>
<path d="M870.681 0.0766602C870.681 0.0766602 79.7825 0.0766602 79.2622 0.0766602C42.2256 0.0766602 24.2276 31.2902 17.3788 64.0993C6.91973 114.244 7.20643 170.9 20.6386 220.52C28.2307 248.586 48.9894 270.077 79.2728 270.077H870.692C887.904 270.077 904.915 262.313 916 248.971C931.216 230.661 933.563 202.67 936.356 179.863C939.86 151.155 939.828 122.029 936.578 93.2997C933.117 62.7287 930.165 26.1504 901.368 8.66441C892.13 3.06417 881.448 0.0766602 870.681 0.0766602Z" fill="url(#paint1_linear_2073_655)"/>
<path d="M870.682 0.0766602V0.57666C881.357 0.576727 891.95 3.53937 901.109 9.09229V9.09131C915.369 17.7502 923.249 31.1435 927.997 46.2251C932.156 59.4334 933.9 73.8946 935.432 87.5562L936.082 93.356C939.327 122.048 939.358 151.134 935.859 179.801C934.461 191.221 933.18 203.886 930.35 215.99C927.52 228.091 923.153 239.581 915.615 248.652C904.627 261.877 887.759 269.577 870.691 269.577H79.2725C49.2763 269.576 28.6718 248.303 21.1211 220.39C7.71175 170.854 7.42344 114.278 17.8682 64.2017C21.283 47.8432 27.4696 31.9248 37.3828 20.106C47.2827 8.30315 60.9067 0.57666 79.2627 0.57666H870.672C870.675 0.57666 870.677 0.576653 870.679 0.51416L870.682 0.0766602Z" stroke="black" stroke-opacity="0.3"/>
</g>
<path d="M24.6425 134.996H10M38.8254 16.8329C19.9149 94.3525 19.9149 175.64 38.8254 253.16M80.5722 1.14746L78.1797 16.4892C65.9409 94.9694 65.9409 175.023 78.1797 253.504L80.5723 268.845" stroke="black" stroke-opacity="0.2"/>
<path d="M34.6774 86.8945C32.5607 87.8778 30.1843 86.1744 30.4541 83.856C31.3031 76.5589 32.3718 68.4899 33.4154 62.4661C33.6062 61.3647 34.4061 60.4732 35.4751 60.1461L55.8779 53.9023C58.0477 53.2383 60.1526 55.1329 59.7854 57.3721C58.8352 63.1665 58.153 69.1989 57.6859 74.5341C57.5917 75.6099 56.9338 76.5554 55.9544 77.0103L34.6774 86.8945Z" fill="#264C3A"/>
<path d="M34.6774 184.918C32.5607 183.935 30.1843 185.638 30.4541 187.956C31.3031 195.254 32.3718 203.322 33.4154 209.346C33.6062 210.448 34.4061 211.339 35.4751 211.666L55.8779 217.91C58.0477 218.574 60.1526 216.68 59.7854 214.44C58.8352 208.646 58.153 202.613 57.6859 197.278C57.5917 196.202 56.9338 195.257 55.9544 194.802L34.6774 184.918Z" fill="#264C3A"/>
<path d="M1873.84 134.996H1887.43M1859.65 15.8876C1878.56 94.0273 1878.56 175.965 1859.65 254.105M1817.9 0.0766602L1820.29 15.5412C1832.53 94.6491 1832.53 175.344 1820.29 254.452L1817.9 269.916" stroke="black" stroke-opacity="0.2"/>
<path d="M115.265 18.1875C109.178 19.1255 103.41 24.1282 98.8469 32.4139C98.8464 32.4147 98.847 32.4158 98.848 32.4158C98.849 32.4158 98.8496 32.4168 98.8491 32.4177L95.4928 38.5248C89.5603 49.3133 86.1641 64.7813 86.1641 81.0087V190.133C86.1641 206.372 89.5603 221.829 95.4885 232.629L98.8458 238.738C103.404 247.036 109.177 252.028 115.265 252.966L119.72 253.654C124.568 254.402 128.941 250.652 128.941 245.747V25.4062C128.941 20.5015 124.568 16.7516 119.72 17.4998L115.265 18.1875Z" fill="#17B26A"/>
<g filter="url(#filter2_di_2073_655)">
<path d="M1819.68 0.0766602C1819.68 0.0766602 1028.78 0.0766602 1028.26 0.0766602C991.226 0.0766602 973.228 31.2902 966.379 64.0993C955.92 114.244 956.206 170.9 969.639 220.52C977.231 248.586 997.989 270.077 1028.27 270.077H1819.69C1836.9 270.077 1853.91 262.313 1865 248.971C1880.22 230.661 1882.56 202.67 1885.36 179.863C1888.86 151.155 1888.83 122.029 1885.58 93.2997C1882.12 62.7287 1879.16 26.1504 1850.37 8.66441C1841.13 3.06417 1830.45 0.0766602 1819.68 0.0766602Z" fill="white"/>
<path d="M1819.68 0.0766602C1819.68 0.0766602 1028.78 0.0766602 1028.26 0.0766602C991.226 0.0766602 973.228 31.2902 966.379 64.0993C955.92 114.244 956.206 170.9 969.639 220.52C977.231 248.586 997.989 270.077 1028.27 270.077H1819.69C1836.9 270.077 1853.91 262.313 1865 248.971C1880.22 230.661 1882.56 202.67 1885.36 179.863C1888.86 151.155 1888.83 122.029 1885.58 93.2997C1882.12 62.7287 1879.16 26.1504 1850.37 8.66441C1841.13 3.06417 1830.45 0.0766602 1819.68 0.0766602Z" fill="url(#paint2_linear_2073_655)"/>
<path d="M1819.68 0.0766602V0.57666C1830.36 0.576727 1840.95 3.53937 1850.11 9.09229V9.09131C1864.37 17.7502 1872.25 31.1435 1877 46.2251C1881.16 59.4334 1882.9 73.8946 1884.43 87.5562L1885.08 93.356C1888.33 122.048 1888.36 151.134 1884.86 179.801C1883.46 191.221 1882.18 203.886 1879.35 215.99C1876.52 228.091 1872.15 239.581 1864.62 248.652C1853.63 261.877 1836.76 269.577 1819.69 269.577H1028.27C998.276 269.576 977.672 248.303 970.121 220.39C956.712 170.854 956.423 114.278 966.868 64.2017C970.283 47.8432 976.47 31.9248 986.383 20.106C996.283 8.30315 1009.91 0.57666 1028.26 0.57666H1819.67C1819.67 0.57666 1819.68 0.576653 1819.68 0.51416L1819.68 0.0766602Z" stroke="black" stroke-opacity="0.3"/>
</g>
<rect x="163" y="8.07666" width="721" height="254" rx="20" fill="url(#paint3_linear_2073_655)"/>
<rect x="1014" y="9.07666" width="721" height="254" rx="20" fill="url(#paint4_linear_2073_655)"/>
<defs>
<filter id="filter0_di_2073_655" x="909" y="83.0767" width="79" height="119" filterUnits="userSpaceOnUse" color-interpolation-filters="sRGB">
<feFlood flood-opacity="0" result="BackgroundImageFix"/>
<feColorMatrix in="SourceAlpha" type="matrix" values="0 0 0 0 0 0 0 0 0 0 0 0 0 0 0 0 0 0 127 0" result="hardAlpha"/>
<feOffset dy="10"/>
<feGaussianBlur stdDeviation="5"/>
<feComposite in2="hardAlpha" operator="out"/>
<feColorMatrix type="matrix" values="0 0 0 0 0.235762 0 0 0 0 0.260725 0 0 0 0 0.360577 0 0 0 0.16 0"/>
<feBlend mode="normal" in2="BackgroundImageFix" result="effect1_dropShadow_2073_655"/>
<feBlend mode="normal" in="SourceGraphic" in2="effect1_dropShadow_2073_655" result="shape"/>
<feColorMatrix in="SourceAlpha" type="matrix" values="0 0 0 0 0 0 0 0 0 0 0 0 0 0 0 0 0 0 127 0" result="hardAlpha"/>
<feOffset dy="-5"/>
<feGaussianBlur stdDeviation="5"/>
<feComposite in2="hardAlpha" operator="arithmetic" k2="-1" k3="1"/>
<feColorMatrix type="matrix" values="0 0 0 0 0 0 0 0 0 0 0 0 0 0 0 0 0 0 0.1 0"/>
<feBlend mode="normal" in2="shape" result="effect2_innerShadow_2073_655"/>
</filter>
<filter id="filter1_di_2073_655" x="0" y="-4.92334" width="949" height="295" filterUnits="userSpaceOnUse" color-interpolation-filters="sRGB">
<feFlood flood-opacity="0" result="BackgroundImageFix"/>
<feColorMatrix in="SourceAlpha" type="matrix" values="0 0 0 0 0 0 0 0 0 0 0 0 0 0 0 0 0 0 127 0" result="hardAlpha"/>
<feOffset dy="10"/>
<feGaussianBlur stdDeviation="5"/>
<feComposite in2="hardAlpha" operator="out"/>
<feColorMatrix type="matrix" values="0 0 0 0 0.235762 0 0 0 0 0.260725 0 0 0 0 0.360577 0 0 0 0.16 0"/>
<feBlend mode="normal" in2="BackgroundImageFix" result="effect1_dropShadow_2073_655"/>
<feBlend mode="normal" in="SourceGraphic" in2="effect1_dropShadow_2073_655" result="shape"/>
<feColorMatrix in="SourceAlpha" type="matrix" values="0 0 0 0 0 0 0 0 0 0 0 0 0 0 0 0 0 0 127 0" result="hardAlpha"/>
<feOffset dy="-5"/>
<feGaussianBlur stdDeviation="5"/>
<feComposite in2="hardAlpha" operator="arithmetic" k2="-1" k3="1"/>
<feColorMatrix type="matrix" values="0 0 0 0 0 0 0 0 0 0 0 0 0 0 0 0 0 0 0.1 0"/>
<feBlend mode="normal" in2="shape" result="effect2_innerShadow_2073_655"/>
</filter>
<filter id="filter2_di_2073_655" x="949" y="-4.92334" width="949" height="295" filterUnits="userSpaceOnUse" color-interpolation-filters="sRGB">
<feFlood flood-opacity="0" result="BackgroundImageFix"/>
<feColorMatrix in="SourceAlpha" type="matrix" values="0 0 0 0 0 0 0 0 0 0 0 0 0 0 0 0 0 0 127 0" result="hardAlpha"/>
<feOffset dy="10"/>
<feGaussianBlur stdDeviation="5"/>
<feComposite in2="hardAlpha" operator="out"/>
<feColorMatrix type="matrix" values="0 0 0 0 0.235762 0 0 0 0 0.260725 0 0 0 0 0.360577 0 0 0 0.16 0"/>
<feBlend mode="normal" in2="BackgroundImageFix" result="effect1_dropShadow_2073_655"/>
<feBlend mode="normal" in="SourceGraphic" in2="effect1_dropShadow_2073_655" result="shape"/>
<feColorMatrix in="SourceAlpha" type="matrix" values="0 0 0 0 0 0 0 0 0 0 0 0 0 0 0 0 0 0 127 0" result="hardAlpha"/>
<feOffset dy="-5"/>
<feGaussianBlur stdDeviation="5"/>
<feComposite in2="hardAlpha" operator="arithmetic" k2="-1" k3="1"/>
<feColorMatrix type="matrix" values="0 0 0 0 0 0 0 0 0 0 0 0 0 0 0 0 0 0 0.1 0"/>
<feBlend mode="normal" in2="shape" result="effect2_innerShadow_2073_655"/>
</filter>
<linearGradient id="paint0_linear_2073_655" x1="980.014" y1="88.0767" x2="980.014" y2="182.077" gradientUnits="userSpaceOnUse">
<stop stop-color="#9AAFBC"/>
<stop offset="0.195" stop-color="white"/>
<stop offset="0.575" stop-color="#415562"/>
<stop offset="1" stop-color="#869DAC"/>
</linearGradient>
<linearGradient id="paint1_linear_2073_655" x1="970.718" y1="0.0766602" x2="970.718" y2="270.077" gradientUnits="userSpaceOnUse">
<stop stop-color="#F3F9FD"/>
<stop offset="0.195" stop-color="white"/>
<stop offset="0.575" stop-color="#F3F9FD"/>
<stop offset="1" stop-color="#EDF2F5"/>
</linearGradient>
<linearGradient id="paint2_linear_2073_655" x1="1919.72" y1="0.0766602" x2="1919.72" y2="270.077" gradientUnits="userSpaceOnUse">
<stop stop-color="#F3F9FD"/>
<stop offset="0.195" stop-color="white"/>
<stop offset="0.575" stop-color="#F3F9FD"/>
<stop offset="1" stop-color="#EDF2F5"/>
</linearGradient>
<linearGradient id="paint3_linear_2073_655" x1="163" y1="135.077" x2="884" y2="135.077" gradientUnits="userSpaceOnUse">
<stop stop-color="white" stop-opacity="0"/>
<stop offset="0.1" stop-color="white"/>
<stop offset="0.9" stop-color="white"/>
<stop offset="1" stop-color="white" stop-opacity="0"/>
</linearGradient>
<linearGradient id="paint4_linear_2073_655" x1="1014" y1="136.077" x2="1735" y2="136.077" gradientUnits="userSpaceOnUse">
<stop stop-color="white" stop-opacity="0"/>
<stop offset="0.1" stop-color="white"/>
<stop offset="0.9" stop-color="white"/>
<stop offset="1" stop-color="white" stop-opacity="0"/>
</linearGradient>
</defs>
</svg>
