<svg width="15" height="15" viewBox="0 0 15 15" fill="none" xmlns="http://www.w3.org/2000/svg">
<path d="M0.750015 5.00148C0.750015 4.76794 0.750015 4.65116 0.75976 4.55281C0.853749 3.60418 1.60419 2.85373 2.55282 2.75975C2.65118 2.75 2.77425 2.75 3.0204 2.75C3.11525 2.75 3.16267 2.75 3.20294 2.74756C3.71709 2.71642 4.16732 2.39192 4.35945 1.914C4.37449 1.87657 4.38855 1.83438 4.41668 1.75C4.44481 1.66562 4.45887 1.62343 4.47392 1.586C4.66605 1.10808 5.11627 0.783577 5.63042 0.752439C5.67069 0.75 5.71516 0.75 5.80411 0.75H9.02926C9.1182 0.75 9.16268 0.75 9.20294 0.752439C9.71709 0.783577 10.1673 1.10808 10.3594 1.586C10.3745 1.62343 10.3886 1.66562 10.4167 1.75C10.4448 1.83438 10.4589 1.87657 10.4739 1.914C10.666 2.39192 11.1163 2.71642 11.6304 2.74756C11.6707 2.75 11.7181 2.75 11.813 2.75C12.0591 2.75 12.1822 2.75 12.2805 2.75975C13.2292 2.85373 13.9796 3.60418 14.0736 4.55281C14.0833 4.65116 14.0833 4.76794 14.0833 5.00148V10.2167C14.0833 11.3368 14.0833 11.8968 13.8654 12.3246C13.6736 12.701 13.3677 13.0069 12.9913 13.1987C12.5635 13.4167 12.0035 13.4167 10.8833 13.4167H3.95002C2.82991 13.4167 2.26986 13.4167 1.84203 13.1987C1.46571 13.0069 1.15975 12.701 0.968002 12.3246C0.750015 11.8968 0.750015 11.3368 0.750015 10.2167V5.00148Z" stroke="#717680" stroke-width="1.5" stroke-linecap="round" stroke-linejoin="round"/>
<path d="M7.41668 10.4167C8.88944 10.4167 10.0833 9.22276 10.0833 7.75C10.0833 6.27724 8.88944 5.08333 7.41668 5.08333C5.94392 5.08333 4.75002 6.27724 4.75002 7.75C4.75002 9.22276 5.94392 10.4167 7.41668 10.4167Z" stroke="#717680" stroke-width="1.5" stroke-linecap="round" stroke-linejoin="round"/>
</svg>
