<svg width="16" height="16" viewBox="0 0 16 16" fill="none" xmlns="http://www.w3.org/2000/svg">
<path d="M14.6667 8.66667V7.33333M4.53337 12H9.46671C10.5868 12 11.1469 12 11.5747 11.782C11.951 11.5903 12.257 11.2843 12.4487 10.908C12.6667 10.4802 12.6667 9.92011 12.6667 8.8V7.2C12.6667 6.0799 12.6667 5.51984 12.4487 5.09202C12.257 4.71569 11.951 4.40973 11.5747 4.21799C11.1469 4 10.5868 4 9.46671 4H4.53337C3.41327 4 2.85322 4 2.42539 4.21799C2.04907 4.40973 1.74311 4.71569 1.55136 5.09202C1.33337 5.51984 1.33337 6.0799 1.33337 7.2V8.8C1.33337 9.92011 1.33337 10.4802 1.55136 10.908C1.74311 11.2843 2.04907 11.5903 2.42539 11.782C2.85322 12 3.41327 12 4.53337 12Z" stroke="black" stroke-width="1.5" stroke-linecap="round" stroke-linejoin="round"/>
</svg>
