<svg width="28" height="27" viewBox="0 0 28 27" fill="none" xmlns="http://www.w3.org/2000/svg">
<path d="M18.4004 23C18.5 23.0003 18.5 23.1003 18.5 23.2002C18.9 24.3001 19.9001 25 21 25C21.6 25 22 25.4 22 26C22 26.6 21.6 27 21 27H7C6.4 27 6 26.6 6 26C6 25.4 6.4 25 7 25C8.09997 25 9.10036 24.3001 9.40039 23.2002C9.5 23.1999 9.5 23.0999 9.5 23H18.4004ZM25 0C26.7 0 28 1.3 28 3V18C28 19.7 26.7 21 25 21H3C1.3 21 0 19.7 0 18V3C0 1.3 1.3 0 3 0H25ZM15.9004 7C15.6005 7 15.1997 7.29969 15.0996 7.59961L13.9004 10.5L12.9004 8.5C12.8004 8.30004 12.5001 8.10002 12.2002 8C11.9002 8 11.4998 8.0998 11.2998 8.2998L9.59961 10H5C4.4 10 4 10.4 4 11C4 11.6 4.4 12 5 12H10C10.3 12 10.5002 11.8996 10.7002 11.5996L11.7002 10.5996L13.0996 13.4004C13.2996 13.8003 13.6001 14 14 14C14.3999 14 14.7999 13.7003 15 13.4004L16.2998 10.2002L17.2002 11.5996C17.4002 11.7996 17.7 12 18 12H23C23.6 12 24 11.6 24 11C24 10.4 23.6 10 23 10H18.5L16.7998 7.40039C16.5999 7.10049 16.3002 7.00007 15.9004 7Z" fill="url(#paint0_linear_77_4940)"/>
<defs>
<linearGradient id="paint0_linear_77_4940" x1="0.499999" y1="-0.999999" x2="29.5" y2="26.8468" gradientUnits="userSpaceOnUse">
<stop stop-color="#F79009"/>
<stop offset="1" stop-color="#FF6C73"/>
</linearGradient>
</defs>
</svg>
