<svg width="14" height="17" viewBox="0 0 14 17" fill="none" xmlns="http://www.w3.org/2000/svg">
<path d="M0.75 2.51698C0.75 1.70767 0.75 1.30302 0.918742 1.07996C1.06575 0.885638 1.29043 0.765388 1.53367 0.750865C1.81286 0.734195 2.14955 0.958655 2.82293 1.40758L11.5859 7.24955C12.1423 7.62049 12.4205 7.80596 12.5175 8.03973C12.6022 8.24411 12.6022 8.4738 12.5175 8.67818C12.4205 8.91195 12.1423 9.09742 11.5859 9.46835L2.82293 15.3103C2.14955 15.7593 1.81286 15.9837 1.53367 15.967C1.29043 15.9525 1.06575 15.8323 0.918742 15.6379C0.75 15.4149 0.75 15.0102 0.75 14.2009V2.51698Z" fill="white" stroke="white" stroke-width="1.5" stroke-linecap="round" stroke-linejoin="round"/>
</svg>
