<svg width="241" height="246" viewBox="0 0 241 246" fill="none" xmlns="http://www.w3.org/2000/svg">
<g filter="url(#filter0_dd_2109_803)">
<path d="M39.8793 45C39.8793 33.6863 39.8792 28.0294 43.394 24.5147C46.9087 21.0002 52.5658 21 63.8793 21L195.879 21C207.192 21 212.849 21.0003 216.364 24.5147C219.878 28.0294 219.879 33.6863 219.879 45L219.879 201C219.879 212.314 219.878 217.971 216.364 221.485C212.849 225 207.192 225 195.879 225L63.8793 225C52.5658 225 46.9087 225 43.3939 221.485C39.8792 217.971 39.8793 212.314 39.8793 201L39.8793 136L23.0316 126.482C20.3228 124.951 20.3228 121.049 23.0316 119.518L39.8793 110L39.8793 45Z" fill="white"/>
<path d="M22.7852 126.918C19.738 125.195 19.738 120.805 22.7852 119.082L22.7861 119.082L39.3789 109.708L39.3789 45C39.3789 39.3573 39.3784 35.0745 39.8233 31.7656C40.2701 28.4428 41.1745 26.0268 43.0401 24.1611C44.9058 22.2955 47.3223 21.3902 50.6455 20.9434C53.9543 20.4985 58.2366 20.5 63.8789 20.5L195.879 20.5C201.521 20.5 205.804 20.4995 209.112 20.9444C212.435 21.3912 214.851 22.2957 216.717 24.1612C218.582 26.0268 219.488 28.4427 219.935 31.7657C220.38 35.0745 220.379 39.3573 220.379 45L220.379 201C220.379 206.643 220.38 210.926 219.935 214.234C219.488 217.557 218.582 219.973 216.717 221.839C214.851 223.704 212.435 224.609 209.112 225.056C205.804 225.501 201.521 225.5 195.879 225.5L63.8789 225.5C58.2365 225.5 53.9543 225.501 50.6455 225.056C47.3223 224.609 44.9058 223.704 43.04 221.839C41.1745 219.973 40.27 217.557 39.8232 214.234C39.3784 210.926 39.3789 206.643 39.3789 201L39.3789 136.292L22.7861 126.918L22.7852 126.918Z" stroke="#17B26A"/>
</g>
<path d="M113.161 126.482C110.452 124.951 110.452 121.049 113.161 119.518L130 110L130 136L113.161 126.482Z" fill="white"/>
<defs>
<filter id="filter0_dd_2109_803" x="0" y="0" width="240.879" height="246" filterUnits="userSpaceOnUse" color-interpolation-filters="sRGB">
<feFlood flood-opacity="0" result="BackgroundImageFix"/>
<feColorMatrix in="SourceAlpha" type="matrix" values="0 0 0 0 0 0 0 0 0 0 0 0 0 0 0 0 0 0 127 0" result="hardAlpha"/>
<feOffset dy="4"/>
<feGaussianBlur stdDeviation="4"/>
<feComposite in2="hardAlpha" operator="out"/>
<feColorMatrix type="matrix" values="0 0 0 0 0.219675 0 0 0 0 0.249186 0 0 0 0 0.346154 0 0 0 0.2 0"/>
<feBlend mode="normal" in2="BackgroundImageFix" result="effect1_dropShadow_2109_803"/>
<feColorMatrix in="SourceAlpha" type="matrix" values="0 0 0 0 0 0 0 0 0 0 0 0 0 0 0 0 0 0 127 0" result="hardAlpha"/>
<feOffset/>
<feGaussianBlur stdDeviation="10"/>
<feComposite in2="hardAlpha" operator="out"/>
<feColorMatrix type="matrix" values="0 0 0 0 0.219608 0 0 0 0 0.25098 0 0 0 0 0.345098 0 0 0 0.2 0"/>
<feBlend mode="normal" in2="effect1_dropShadow_2109_803" result="effect2_dropShadow_2109_803"/>
<feBlend mode="normal" in="SourceGraphic" in2="effect2_dropShadow_2109_803" result="shape"/>
</filter>
</defs>
</svg>
