<svg width="246" height="241" viewBox="0 0 246 241" fill="none" xmlns="http://www.w3.org/2000/svg">
<g filter="url(#filter0_dd_2109_803)">
<path d="M45 201C33.6863 201 28.0294 201 24.5147 197.485C21.0002 193.971 21 188.314 21 177L21 45.0001C21 33.687 21.0003 28.0304 24.5147 24.5157C28.0294 21.001 33.6863 21.0001 45 21.0001L201 21.0001C212.314 21.0001 217.971 21.001 221.485 24.5157C225 28.0304 225 33.687 225 45.0001L225 177C225 188.314 225 193.971 221.485 197.485C217.971 201 212.314 201 201 201L136 201L126.482 217.848C124.951 220.557 121.049 220.557 119.518 217.848L110 201L45 201Z" fill="white"/>
<path d="M126.918 218.094C125.195 221.141 120.805 221.141 119.082 218.094L119.082 218.093L109.708 201.5L45 201.5C39.3573 201.5 35.0745 201.501 31.7656 201.056C28.4428 200.609 26.0268 199.705 24.1611 197.839C22.2955 195.974 21.3911 193.557 20.9443 190.234C20.4995 186.925 20.5 182.643 20.5 177L20.5 45.0005C20.5 39.3581 20.4995 35.0757 20.9444 31.7671C21.3912 28.4441 22.2957 26.0283 24.1611 24.1626C26.0268 22.2969 28.4426 21.3919 31.7656 20.9448C35.0745 20.4997 39.3573 20.5005 45 20.5005L201 20.5005C206.643 20.5005 210.926 20.4997 214.234 20.9448C217.557 21.3919 219.973 22.297 221.839 24.1626C223.704 26.0283 224.609 28.4441 225.056 31.7671C225.501 35.0758 225.5 39.3581 225.5 45.0005L225.5 177C225.5 182.643 225.501 186.925 225.056 190.234C224.609 193.557 223.704 195.974 221.839 197.839C219.973 199.705 217.557 200.609 214.234 201.056C210.926 201.501 206.643 201.5 201 201.5L136.292 201.5L126.918 218.093L126.918 218.094Z" stroke="#17B26A"/>
</g>
<path d="M126.482 127.718C124.951 130.428 121.049 130.428 119.518 127.718L110 110.879L136 110.879L126.482 127.718Z" fill="white"/>
<defs>
<filter id="filter0_dd_2109_803" x="0" y="0" width="246" height="240.879" filterUnits="userSpaceOnUse" color-interpolation-filters="sRGB">
<feFlood flood-opacity="0" result="BackgroundImageFix"/>
<feColorMatrix in="SourceAlpha" type="matrix" values="0 0 0 0 0 0 0 0 0 0 0 0 0 0 0 0 0 0 127 0" result="hardAlpha"/>
<feOffset dy="4"/>
<feGaussianBlur stdDeviation="4"/>
<feComposite in2="hardAlpha" operator="out"/>
<feColorMatrix type="matrix" values="0 0 0 0 0.219675 0 0 0 0 0.249186 0 0 0 0 0.346154 0 0 0 0.2 0"/>
<feBlend mode="normal" in2="BackgroundImageFix" result="effect1_dropShadow_2109_803"/>
<feColorMatrix in="SourceAlpha" type="matrix" values="0 0 0 0 0 0 0 0 0 0 0 0 0 0 0 0 0 0 127 0" result="hardAlpha"/>
<feOffset/>
<feGaussianBlur stdDeviation="10"/>
<feComposite in2="hardAlpha" operator="out"/>
<feColorMatrix type="matrix" values="0 0 0 0 0.219608 0 0 0 0 0.25098 0 0 0 0 0.345098 0 0 0 0.2 0"/>
<feBlend mode="normal" in2="effect1_dropShadow_2109_803" result="effect2_dropShadow_2109_803"/>
<feBlend mode="normal" in="SourceGraphic" in2="effect2_dropShadow_2109_803" result="shape"/>
</filter>
</defs>
</svg>
